<?xml version="1.0" standalone="no"?>
<!DOCTYPE svg PUBLIC "-//W3C//DTD SVG 20010904//EN"
 "http://www.w3.org/TR/2001/REC-SVG-20010904/DTD/svg10.dtd">
<svg version="1.0" xmlns="http://www.w3.org/2000/svg"
 width="16.000000pt" height="16.000000pt" viewBox="0 0 16.000000 16.000000"
 preserveAspectRatio="xMidYMid meet">
<metadata>
Created by potrace 1.11, written by Peter Selinger 2001-2013
</metadata>
<g transform="translate(0.000000,16.000000) scale(0.002667,-0.002667)"
fill="#000000" stroke="none">
<path d="M2765 5854 c-16 -2 -73 -9 -125 -15 -460 -52 -962 -256 -1353 -550
-571 -429 -966 -1058 -1093 -1739 -45 -242 -59 -575 -35 -830 33 -344 140
-705 303 -1020 44 -85 84 -159 89 -165 5 -5 9 149 9 401 0 306 3 413 12 422 9
9 201 12 803 12 684 0 793 2 812 15 12 8 191 219 398 469 207 250 385 458 396
461 10 4 28 4 38 0 11 -3 88 -90 173 -192 427 -519 605 -729 628 -740 19 -10
201 -13 811 -13 597 0 788 -3 797 -12 9 -9 12 -117 12 -423 l1 -410 24 40 c42
67 131 245 170 340 109 263 182 564 206 850 18 224 7 551 -25 735 -115 660
-449 1248 -957 1684 -137 117 -235 187 -389 277 -380 222 -758 347 -1187 394
-126 13 -432 19 -518 9z m257 -1826 c14 -12 331 -408 511 -640 l68 -88 673 0
672 0 31 -32 c17 -18 100 -116 184 -217 85 -102 191 -230 237 -284 133 -158
172 -207 172 -217 0 -5 -7 -16 -16 -24 -14 -14 -104 -16 -839 -16 l-823 0
-304 367 c-166 202 -361 437 -432 522 -105 128 -134 156 -155 156 -22 0 -81
-68 -389 -440 -199 -242 -394 -477 -433 -523 l-69 -82 -826 2 -827 3 -14 22
c-14 20 -3 35 213 295 126 150 266 317 312 371 l83 97 672 0 673 0 279 352
c154 194 288 361 298 370 20 21 28 22 49 6z"/>
<path d="M2864 2734 c-67 -35 -110 -79 -142 -144 -23 -46 -27 -68 -26 -135 0
-67 5 -89 27 -132 34 -66 81 -114 143 -144 70 -35 198 -34 268 0 63 31 116 84
147 147 20 40 24 64 24 134 0 72 -4 92 -27 136 -43 82 -150 163 -215 164 -23
0 -23 -2 -23 -135 l0 -135 89 0 c68 0 93 -4 105 -16 18 -18 19 -23 6 -44 -7
-12 -36 -16 -124 -18 -160 -5 -156 -10 -156 193 l0 155 -24 0 c-12 0 -45 -12
-72 -26z"/>
<path d="M1165 1737 c-135 -52 -158 -225 -41 -305 99 -68 238 -7 260 113 16
81 -41 172 -119 194 -48 13 -61 13 -100 -2z"/>
<path d="M2575 1736 c-38 -17 -80 -62 -94 -99 -47 -123 64 -258 191 -233 148
30 187 229 62 315 -42 29 -117 37 -159 17z"/>
<path d="M3994 1731 c-131 -59 -133 -245 -4 -311 126 -64 267 43 245 187 -5
35 -16 55 -49 87 -58 59 -118 70 -192 37z"/>
<path d="M1895 1731 c-99 -25 -152 -137 -111 -235 8 -18 31 -46 52 -62 32 -25
46 -29 100 -29 70 0 102 17 142 75 27 40 30 116 5 167 -29 63 -117 102 -188
84z"/>
<path d="M3295 1726 c-121 -54 -140 -221 -33 -297 49 -35 142 -39 188 -7 80
55 104 150 57 233 -39 70 -139 104 -212 71z"/>
<path d="M4712 1719 c-62 -31 -96 -92 -90 -165 8 -90 62 -144 152 -152 73 -6
134 28 165 91 26 53 26 90 2 142 -22 48 -44 69 -94 90 -49 20 -84 19 -135 -6z"/>
<path d="M1120 1347 c-42 -11 -49 -18 -133 -146 l-89 -134 51 -51 c49 -49 51
-50 65 -31 15 19 15 18 16 -14 0 -29 9 -44 58 -89 53 -49 280 -225 345 -267
15 -10 30 -16 32 -13 3 3 -13 85 -35 183 -23 97 -40 189 -38 204 3 23 11 14
68 -68 101 -147 132 -147 232 1 l63 93 3 -291 2 -291 68 -31 67 -30 3 139 c2
128 4 138 23 144 43 14 49 -7 49 -165 l0 -147 56 -22 c31 -11 62 -21 70 -21
12 0 14 56 14 357 l0 358 65 -97 c96 -144 128 -144 222 -2 53 80 58 85 60 58
2 -16 -19 -128 -46 -249 -34 -154 -46 -224 -39 -232 6 -7 28 -13 49 -13 l39 0
0 -123 c0 -116 1 -125 23 -145 33 -31 80 -29 106 4 19 24 21 40 21 145 l0 119
29 0 29 0 4 -126 c3 -118 4 -127 27 -145 30 -25 76 -24 101 1 18 18 20 33 20
145 l0 125 38 0 c70 0 70 -6 13 249 -28 127 -51 243 -51 258 0 23 11 12 62
-65 100 -147 138 -149 233 -8 l60 88 5 -391 c5 -422 4 -412 60 -426 18 -4 34
0 52 15 l27 21 3 210 c3 222 7 241 50 218 16 -9 18 -27 18 -212 0 -233 4 -247
69 -247 26 0 44 7 57 21 18 20 19 44 22 407 l3 386 56 -85 c63 -96 77 -109
112 -109 36 1 50 14 114 110 56 83 57 84 57 50 0 -19 -21 -131 -46 -247 -25
-117 -44 -219 -40 -228 3 -10 19 -15 46 -15 l40 0 0 -95 c0 -70 3 -95 13 -94
6 0 39 10 72 23 l60 23 3 71 3 72 34 0 35 0 0 -56 c0 -41 3 -55 13 -51 110 44
137 61 137 83 0 21 5 24 40 24 28 0 43 5 47 16 3 8 -15 112 -41 230 -26 118
-46 229 -44 246 3 29 6 26 63 -58 94 -140 129 -139 228 6 l57 84 0 -178 c0
-158 2 -177 16 -172 25 9 204 150 277 217 59 53 67 65 67 97 1 33 2 35 14 20
20 -27 30 -23 79 33 l45 52 -85 128 c-98 147 -101 149 -230 149 -121 0 -132
-8 -233 -161 -47 -71 -94 -141 -106 -155 l-20 -26 -103 156 c-57 87 -115 165
-129 174 -18 12 -53 18 -112 20 -134 6 -140 2 -263 -183 l-105 -157 -101 150
c-55 83 -110 157 -123 166 -26 18 -199 23 -242 6 -17 -6 -61 -62 -132 -170
-70 -105 -111 -157 -117 -151 -6 6 -56 79 -111 163 -115 173 -119 176 -243
177 -122 1 -133 -7 -247 -180 -55 -82 -103 -152 -107 -155 -4 -2 -52 62 -107
144 -55 81 -108 154 -118 162 -13 11 -46 15 -129 15 -95 0 -116 -3 -133 -18
-11 -10 -64 -85 -118 -167 -55 -82 -102 -150 -105 -150 -3 0 -53 70 -110 156
-57 86 -113 163 -125 170 -29 20 -169 27 -224 11z"/>
</g>
</svg>
