<svg xmlns="http://www.w3.org/2000/svg" xmlns:xlink="http://www.w3.org/1999/xlink" viewBox="0 0 566.9 283.5"><path fill="#98D5E9" d="M192.4 197.5c9.5-15.6 15-33.8 15-53.4 0-56.7-45.9-102.5-102.6-102.5C48 41.6 2.1 87.4 2.1 144.1c0 19.5 5.5 37.8 15 53.4h175.3z"/><defs><circle id="a" cx="104.7" cy="144.1" r="102.6"/></defs><clipPath id="b"><use xlink:href="#a" overflow="visible"/></clipPath><g fill="#5DB45C" clip-path="url(#b)"><path d="M154.1 111.7s.6.1 1 .1c.2 0 .1-.4.1-.4-.1-.1-.3-.2-.8-.6-1.9-1.6-3.8-3.3-5.6-5.2-.5-.5-.7-1.9-.2-2.3.7-.9.9 0 1.6.5 1.9 1.6 3.8 3.1 5.6 4.5.2.2.5.7.7 1.2.9 2.4 1.6 4.7 2.6 6.8.2.2.7.5.9.5.7-.9 1.2-1.6 1.6-2.4-.5-.9-1.2-2.1-1.6-3 .7 0 1.2 0 1.4-.2 1.6-1.2 2.8-1.9 3.1 1.2 0 1.2.5 2.4 1.2 3.1.9.9 2.3 1.4 3.5 1.9.7.2 1.4 0 2.1 0 .7 0 1.4.2 1.9 0 .7-.2 1.6-.5 3.1-.9-.7 2.8-1.2 5.2-1.9 7.3-.2.7-.9 1.4-1.4 1.4-1.9.2-3.8.7-5.4.2-2.3-.5-4.5-1.4-6.6-2.4-1.6-.7-3.1-.2-3.5 1.6 0 .5-1.2 1.6-1.2 1.4-1.4-.7-2.8-1.9-4.2-2.6-.5-.5-1.2-.7-1.9-.9-1.4-.5-2.8-.9-4-1.4.2-.2.5-.2.7-.5 0-1.4.2-2.8 0-4 0-.2-1.9-.2-2.8-.2-.2 0-.7-.2-.9 0-3.1.7-6.3.9-9.2 2.1-2.1.9-4 .7-5.4 0-1.2 1.4-2.6 2.3-3.5 3.5-.7.9-1.4 2.1-1.4 3.3 0 2.3-1.2 3.3-2.8 4.2-.5.2-.9.7-1.4 1.2-1.4 2.3-2.6 4.7-3.8 7.3-.2.5-.5 1.2-.2 1.6 0 2.3.7 4.7.2 6.8-.5 2.8-.5 5.4 1.9 7.5.7.7 1.4 1.9 2.1 2.8 1.2 1.4 2.6 2.8 3.8 4.5 1.6 2.1 3.3 1.9 5.4.9-.5-.2 0-.2.2-.2 2.3.9 4.5-.2 6.6-1.2 1.9-.7 4-1.2 4.7 1.6 0 .2.7.7 1.2.7 3.5 0 4.2.5 3.3 3.8-.7 3.1-.5 5.4 1.9 7.8.7.7.9 1.6 1.2 2.3.7 2.3 1.2 4.7 1.6 7 .2.7-.2 1.6-.5 2.6-1.2 3.1-2.6 6.1-.7 9.4 1.2 2.1 1.4 4.7 2.3 7 .7 2.4 1.6 4.5 2.4 6.8.7 1.9 1.2 4 1.6 6.1.2 1.6 1.4 2.6 3 2.1 1.2-.2 2.4-.2 3.5-.7 1.6-.5 4-.9 4.9-2.1 2.6-2.8 5.4-5.4 5.2-9.9 0-.2.5-.9.7-.9 3.1-.9 2.6-3.3 1.9-5.6-.2-.7-.2-1.9.2-2.6 1.2-1.4 2.8-2.3 4-3.8.7-.7 1.9-1.6 1.9-2.3 0-2.4-.2-4.9-.7-7.3-.2-2.3-1.6-4.9-.7-7 1.4-3.3 3.5-6.8 6.1-8.9 3.8-3.1 5.2-7.3 7-11.3.5-.9.2-2.1.5-3.1-1.4.2-2.6.5-3.8.9-1.2.2-2.6 1.2-3.8.7-.9-.2-1.2-2.1-1.9-3.1-1.9-2.3-4.7-4.2-5.2-7.5-.2-1.2-.9-2.3-1.4-3.8-.2-.7-.2-1.4-.5-1.9-1.2-2.8-2.6-5.4-3.8-8.2l.7-.7c.7.5 1.9.7 2.1 1.4 1.4 2.8 4 5.2 4 8.7 0 .2.2.7.5.7 2.8 2.6 3.8 6.1 4.2 9.6 0 .5.2 1.2.5 1.9 1.2-.5 2.4-.7 3.3-1.4 3.3-1.9 6.8-3.8 10.1-6.1 1.6-1.2 2.8-3.3 4.2-4.9 1.4-1.6.2-2.3-.7-3.5-.9-.9-1.9-1.9-3.1-2.8-.2.2-.5.9-1.2 1.2-.9.5-2.1.7-3.1.9-.2-.7-.2-1.4-.5-2.3 0-.2-.2-.2-.2-.5l-.7.7c-.9-1.6-1.9-3.3-2.6-4.9-.2-.5 0-1.4.5-1.6.5-.2 1.4 0 1.9.2s.5.9.7 1.4c1.4 2.8 3.8 3.8 5.6 2.8 1.9.9 3.1 1.6 4.5 2.1 1.4.2 3.1.2 4.5.2 1.9 0 3.5-.2 4.5 1.9.5.9 1.6 1.4 2.6 2.1-.2.2-.5.5-.9.7 1.9 2.4 2.4 2.6 4 .2-.2 7.3 2.6 13.4 5.2 19.7 2.8-2.8 3.3-5.6 3.3-8.9 0-.9.7-1.9 1.2-2.6.2-.5.9-.9 1.4-1.4 1.2-.9 2.1-2.1 3.3-3.3.2-2.8.2-5.6.2-8.7 0-28.4-10.1-54.2-26.5-74.7-1.2.5-2.6.2-4.2-.2.9.9 1.9 1.6 3 2.8-2.8.5-5.4.9-7.7 1.4-.2 0-.7-.7-.9-1.2-.9.2-1.9.5-2.6.9-1.4.7-2.8 1.2-3.8 2.1-1.6 1.4-1.9 1.4-3.3-.5.5-.2.9-.5 2.3-.9-1.4-.5-2.3-.7-3.3-1.2v4.7c-3.1-.7-4.9.7-4.7 3.3-1.4-.2-2.6-.7-3.8-.9v.5l1.6 1.6c-2.4 0-3.5-.7-4-2.1-.2-.9-.7-2.1-.9-3.1.2 0 .7.2 1.2.2 1.6.2 3.1.9 4.7.7.9 0 1.9-1.2 2.8-1.6-.7-.7-1.2-1.6-1.9-2.1-3.5-1.6-7.3-2.8-10.8-4.2 0 0 .5-.2.9-.2-.9-.7-1.6-1.2-2.6-1.2-.9 0-2.1 0-3.1.2-.7 0-1.4-.2-1.9 0-1.6.5-3.5 1.4-5.2 1.6-1.6.2-2.8.7-3.3 2.3-.7 0-1.6-.2-2.3-.2v.7c.5.2.9.5 1.2.7-1.4 1.6-2.6 3.3-4 4.9-1.4 1.6-2.8 3.3-4.5 4.5-4.2 2.6-4.5 2.8-3.8 7.3 0 .5.5.7.5 1.2.5 2.1 1.6 2.6 3.3 1.2.7-.5 1.6-1.2 2.4-1.6.9 1.9 1.6 3.5 2.3 5.4-.5.5-1.2.9-1.9 1.4.2.5.5.9.7 1.9.5-.9.7-1.4.9-2.1.9.5 4-.7 4.5-1.6.9-2.1 1.6-4 2.6-6.3-1.6-.7-2.1-2.4-1.2-4.2.5-.9 1.6-1.4 2.3-2.1.7-.7 1.4-1.6 1.9-2.6.7-2.1 2.8-2.6 4.7-.7-.7.7-1.2 1.4-1.9 1.9-1.6 1.4-3.5 2.8-2.8 5.6.5 1.9 1.4 2.3 2.8 2.3 1.2 0 2.1-.7 3.3-.7.9 0 1.9.2 2.8.2v.9c-2.1.2-4.5.7-6.6.9.5 1.6.7 2.8.9 4-.2 0-.5.2-.7.2-.5-.5-1.2-.9-2.3-1.9-.5 2.1-.7 3.5-.9 5.2-.9.2-1.9 2.1-3.3.5 0 0-.5 0-.7.2-1.9 1.9-4.5.7-6.6.9-.5 0-1.4-.9-2.1-1.4v-.5c.2 0 .5.2.7.2 0-1.4-.2-3.1-.2-4.2-4.5 1.2-1.2 4.2-1.6 5.9-1.9 1.2-3.5 1.9-4.9 2.8-1.6 1.4-3.1 3.1-4.7 4.5-.5.5-.8.6-1.2.9-.2 0-1.1-.5-1.3-.3-.5.2.1 1.2-.3 1.5-.7.2-2.3.1-3.4.3l.2.8c.9.7 3.4 1.8 3.8 2.8.5 1.2.2 2.8 0 4.2 0 .2-1.6.5-2.6.5 0 0-4.9-.1-5.9 0-1.8.1-.8 7.1 0 9.4.4 1 2.8 1.4 4 1.9.5-.2 1.2-.5 1.9-.7 2.8-.5 3.5-1.4 4-4 .2-.9.9-2.1 1.6-2.6 1.2-.7 2.6-1.2 2.1-3.1 0-.2 1.2-.9 1.6-.7 1.9.9 3.1-.2 4.5-.9.5-.2 1.4-.2 1.9.2 1.9 1.6 4 3.3 5.8 5.4.7.7.3 2.6.8 3.3m27.6-5.1c-1.4 0-3.1-.2-4.5-.9-1.9-.7-3.3-.7-4.9.2-.9.5-2.8.5-3.8-.2-1.2-.7-.7-1.9 0-3 1.2-1.6 1.9-3.5 2.8-4.9 2.6.2 2.6 2.4 3.3 3.5.9-.5 1.9-.7 2.8-1.2-.7-.2-1.2-.7-2.6-1.4 2.1-.9 3.8-1.4 5.6-2.1-.7 1.4-1.4 2.6-2.1 3.8 1.4.9 2.8 2.1 4 3.3.5.5 1.2 1.4.9 2.1.4.3-.8 1-1.5.8zm15 .7c.5 1.9.9 3.8 1.6 6.3-1.9-.2-3.3-.5-4.5-.7-2.1-.7-2.3-2.1-1.2-3.8.7-1.2.2-1.9-.2-2.8-.7-1.4-1.6-3.1-2.4-4.7-.2-.5 0-1.4.5-1.6 1.9-1.4 3.5-3.5 7-1.9-1.4 1.4-2.6 2.4-3.8 3.5.9 1.2 1.6 2.6 2.4 3.5.9.7 1.6 1.2 3.1 1.9-1.3.1-1.7.1-2.5.3zM91.4 175.6c-.7-.2-.9-.9-1.6-1.4-.7-.5-1.6-1.4-2.3-1.4-3.8.2-6.1-2.8-9.4-3.5-2.3-.5-1.9-3.1-2.6-4.7-1.2-2.3-2.8-3.8-5.2-4-1.2 0-2.3-.7-3.3-1.6-1.6-1.2-3.1-2.8-4.5-4-.5-.5-1.2-.9-1.6-.7-2.3.9-4 .2-5.9-1.2-.7-.5-2.1 0-3.3.2.2-.5.5-.9.5-1.4l-.5-.5c-2.1 1.9-4.2 3.5-6.3 5.4-.9-.9-2.1-1.9-4-.5-.5.2-1.4-.2-1.9-.5-2.1-1.6-1.4-3.8-1.2-5.9.2-2.4-.5-3.3-2.8-3.1h-3.3c.7-2.6 1.4-5.2 2.1-7.5-2.6-.7-3.5-.5-4.2 1.9-.5 2.1-2.1 1.9-3.5 2.1-.9 0-2.3-.5-2.6-.9-.9-1.9-1.6-4-1.9-6.1-.2-1.2.5-2.6.5-3.8 0-4.5 2.6-6.3 7-4.9.5.2 1.2-.2 1.9-.5.7-.2 1.4-.9 1.9-.9 1.2 0 2.3.9 3.3.7 2.1-.5 2.4.9 2.6 2.3.5 1.6 1.2 3.1 1.9 4.5.5 0 .7-.2 1.2-.2-.2-1.4 0-3.1-.7-4.5-1.4-3.3-.7-5.6 1.9-7.8.7-.7 1.6-1.2 2.4-1.9.5-.5.9-1.2 1.2-2.1.2-1.2-.5-2.1.7-3.8 1.6-1.9 2.3-4.7 5.4-4.9-.5-3 2.6-5.6 6.6-5.9-.5.7-.7 1.6-1.2 2.6.2 0 .5 0 .5.2 2.1-1.2 4.2-2.4 6.3-3.8-.2-.7-.7-.9-.5-.9-1.2.5-2.1 1.4-2.8.9-.9-.2-1.4-1.6-2.1-2.3-.2-.2-.5-.7-.7-.9.5-.2 1.2-.7 1.9-1.4-2.6-1.6-4.2.2-6.1.7 1.9-2.1 3.8-3.8 7-3.3 1.9.5 3.8.2 5.2-1.4.2-.2 1.2-.2 1.6-.2 1.6-1.4 1.9-3.1.9-3.8-1.4-.9-2.8-1.9-4.2-2.8-.7-.7-1.4-1.4-1.9-2.3-1.2-2.3-2.1-4.7-3.3-7-1.4 1.6-2.3 2.8-3.3 4.2h-.9c-.7-1.6-1.6-3.3-2.6-5.2-2.3-1.9-5.2-3.3-8.7-2.6v7.3c2.8 2.6 2.6 4-1.6 6.8-.2 1.9 2.3 4.2-1.4 6.1-.9-2.4-1.9-4.7-2.6-6.6-3.5-1.4-7.3-3.1-11-4.5-.2-.5-.9-1.4-1.6-2.3-.5-.7-1.2-1.2-1.2-1.9 0-2.3 4-7.3 6.1-8 .9-.5 1.9-1.4 2.6-2.1.5-.5.9-.9 1.4-1.6-.5-.7-.5-1.2-.9-1.9 2.8 1.4 4.5.5 5.6-.9-.2-1.2-.2-1.9-.5-2.6 0-.7 0-1.6-.5-1.9-.9-.7-2.3-.9-2.8-1.2-.9 2.1-1.6 3.8-2.6 5.2-.2 0-.5.2-.7.2-.2-.7-.5-1.4-.7-2.1-.2-.7-.5-1.4-.9-2.6-.7 1.2-1.2 1.6-1.6 2.3-.2-1.6-.2-3.1-2.1-2.6.2-1.9-.7-3.1-1.9-4.2-.9 1.2-1.9 2.1-2.8 3.3.2.5.5.7.7 1.2h-1.6c-.5.7-.9 1.2-1.4 1.9.2 0 .5.2.5.2-.5.7-1.2 1.2-1.9 1.4C7.1 78.8-1.1 98.5-3.5 119.9c.2.2.5.2.5.5.7.7 1.4 1.4 2.1 2.4.9 1.4 1.6 3 2.4 4.7.5.9.7 1.9 1.2 2.6.5.9 1.4 1.6 2.1 2.6.9 1.2 1.6 2.6 2.3 4 .2-.2.5-.2.7-.5-2.1-4-4.2-8-6.3-11.7.2-.2.5-.5.9-.7.5.5 1.2.9 1.6 1.6.5.9.7 2.1 1.4 2.8 1.9 2.6 4 4.9 5.9 7.5.9 1.2.9 3.1 1.4 4.5.2.7.5 1.4.9 1.6 1.9 1.2 3.8 2.6 5.9 3.5 1.6.9 3.3 1.4 5.6.9 1.2-.2 3.1 2.1 4.7 3.1 1.9.9 4 1.6 5.2 3.8.2.7.2 1.6.7 1.9 1.9 1.4 3.8 2.6 5.4 3.5.7-.7 1.2-1.4 1.6-2.1 0 0 .7.2.9.5.5 1.4.9 2.6 1.2 4 .7 2.6-.9 4.5-2.4 6.3-1.6 1.9-1.9 3.8-.7 5.9-1.6 1.2-1.6 2.8-.7 4.5.9 1.6 1.9 3.3 2.8 4.9 1.9 3.8 2.6 8.2 7.3 10.1 1.6.7 2.3 2.4 2.1 4.2-.7 6.6-.9 13.2-1.9 19.5-.5 3.5-2.1 7-2.3 10.6 0 1.4-.2 2.8-.5 4.2l.2.2c.2-.7.5-1.6.7-2.3.2 0 .5 0 .7.2-.2.9-.2 1.9-.5 2.8 2.1 1.4 4.2 2.6 6.3 3.8.2-.5.7-.9 1.4-1.6.5-.2.9-.9.9-1.4.2-1.6.5-3.3.7-4.7.9 0 2.1 0 2.6-.5s.5-1.9.7-2.8c.2.2.2.5.5.5 1.6-.9 3.8-1.4 4.9-2.8 1.6-1.6-.2-3.3-1.2-4.9 4.7 1.4 5.6.9 7.3-3.8.2-.9 1.2-1.4 1.9-2.3.7-1.4 1.9-2.6 2.1-4.2.5-3.8 2.6-6.1 6.1-6.8.9-.2 2.1-.9 2.6-1.9 1.6-3.1 2.6-6.6 2.3-10.1 0-.7 0-1.4.5-1.9.9-1.6 2.3-3.1 3.3-4.7.7-1.4.7-3.1.9-4.7.6-1.2-1-1.2-2-1.6zM24.3 58.9c.7.5 1.4.9 2.3 1.6l-2.8 2.8c-1.2-1.4 0-2.8.5-4.4zm27.9-16.2c1.9-.2 3.5-.5 4.9-.7-2.1-.5-4.2-.9-6.6-1.4 2.6-2.6 6.6-1.4 9.6-4.5-1.6-.2-2.3-.5-3.3-.7v-.5c2.4-.7 4.5-1.4 7-2.3 0 0 0-.5.2-1.2 2.8.2 5.9-2.3 8.9 0 0 0 .2 0 .2-.2v-.7c1.2.5 2.1.7 3.8 1.4-.5-.7-.7-1.2-1.4-2.1 2.8.7 5.2 1.4 7.3 1.9v-.2c-.9-.5-1.9-.7-2.8-1.2 2.8-2.1 5.9-2.1 9.2-1.2 4-2.6 8.5-1.4 12.7-.9 2.4.2 4.7 1.2 7 1.9v.7c-2.6.2-4.9.5-7.5.7 2.6.2 4.9.2 7.5.5-.5.7-.9 1.4-1.2 1.9 3.8-1.2 7.5-2.8 12.4-1.4-4.5 2.1-8.2 4.2-10.8 8.2.9.2 1.6.5 2.8.7-.5.2-.7.2-1.6.7 1.2.2 1.9.5 2.8.7-.2.5-.5.9-.5 1.2h-3.5c.9 1.2 1.6 1.9 2.6 2.8-.2.2-.7.5-1.2.7l1.4 1.4c-1.4.9-2.6 1.9-4 2.8.2 1.4.7 3.3 1.2 6.1-1.6-.7-2.8-1.4-4.2-2.1-.2.5-.7 1.2-.9 1.6 1.2.2 2.3.5 3.8.7-2.6 2.6-5.9 3-9.2 4-1.2.2-2.4.7-3.1 1.6-1.4 1.9-3.3 3.1-5.6 3.1-1.6 0-2.6.9-2.6 2.6 0 .5 0 1.2-.2 1.4-1.9 1.6-1.9 3.8-2.6 5.9-.5 1.4-1.4 1.4-2.4.7l-.9-.9c-4.7-.7-5.6-4.7-7-8-.9-1.4-1.9-2.8-1.9-4.2 0-.9.7-3.1 1.2-3.1 1.4-.2 1.9-.7 1.6-1.6-.2-.7-1.2-1.4-1.6-1.9l-.7.7c.5.2.9.2 1.4.5-.2.2-.2.5-.5.7-.9-.2-2.1-.2-3-.5.9-2.6.9-2.6 4.2-2.1 0-.2.2-.5.2-.7-1.6-.5-3.3-1.2-5.2-1.9.7-3.3-.9-6.1-3.5-8.2-1.4-1.2-3.8-1.2-5.9-1.4-1.4-.2-3.1.2-4.5.2-.7 0-1.2-.5-1.9-.9-.5-.2-1.2-.6-2.1-1.3zm0 0"/></g><defs><path id="c" d="M207.3 144.1c0 56.7-45.9 102.6-102.6 102.6S2.1 200.7 2.1 144.1 48 41.5 104.7 41.5s102.6 45.9 102.6 102.6z"/></defs><clipPath id="d"><use xlink:href="#c" overflow="visible"/></clipPath><g fill="#FFF" clip-path="url(#d)"><path d="M105.8 124.4l30.4 36.8c.3.3.7.5 1.1.5h58c1.2 0 1.9-1.4 1.1-2.4l-21.1-25.2c-.3-.3-.7-.5-1.1-.5h-47.1c-.4 0-.9-.2-1.1-.5l-20.2-25.5c-.6-.7-1.7-.7-2.3 0l-20.2 25.5c-.3.3-.7.5-1.1.5H35.1c-.4 0-.8.2-1.1.5l-21.1 25.2c-.8.9-.1 2.4 1.1 2.4h58c.4 0 .8-.2 1.1-.5l30.4-36.8c.7-.7 1.7-.7 2.3 0z"/><path d="M190.3 166.8h-55.5c-.6 0-1.2-.3-1.6-.8l-26.9-32.4c-.9-1-2.4-1-3.3 0L76.2 166c-.4.5-1 .8-1.6.8H19.1c-1.2 0-2.1 1-2.1 2.1v86.5c0 1.2 1 2.1 2.1 2.1h171.2c1.2 0 2.1-1 2.1-2.1v-86.5c0-1.2-.9-2.1-2.1-2.1zm-85.6 8.1c-6.2 0-11.2-5-11.2-11.2 0-5.8 4.4-10.5 10-11.2v11.4c0 .7.6 1.3 1.3 1.3h7.5c.7 0 1.3-.6 1.3-1.3 0-.7-.6-1.3-1.3-1.3H106v-10.1c5.6.6 10 5.4 10 11.2-.1 6.2-5.1 11.2-11.3 11.2z"/></g><g clip-path="url(#d)"><path fill="#98D5E9" d="M46.7 205.7c-.7-1.8-2.4-2.3-4.5-2.3H39c-2 0-3.8.5-4.5 2.3l-8.8 13c-.8 1.2-.5 2.8.7 3.6 1.2.8 2.8.5 3.6-.7l4.2-6.2v2.7l-3.4 15.4c-.1.3 0 .6.2.8.2.2.4.3.7.3h2.5v8c0 1.4 1.1 2.6 2.6 2.6 1.4 0 2.6-1.1 2.6-2.6v-8H42v8c0 1.4 1.1 2.6 2.6 2.6 1.4 0 2.6-1.1 2.6-2.6v-8h2.5c.3 0 .5-.1.7-.3.2-.2.2-.5.2-.8L47 218.1v-2.7l4.2 6.2c.8 1.2 2.4 1.5 3.6.7 1.2-.8 1.5-2.4.7-3.6l-8.8-13zm-6.1-4c3.4 0 6.1-2.9 6.1-6.3s-2.7-6.1-6.1-6.1c-3.4 0-6.1 2.7-6.1 6.1 0 3.4 2.7 6.3 6.1 6.3zm0 0"/><path fill="#FFDC2E" d="M81.3 218.9l-8.8-13c-.7-1.8-2.4-2.3-4.5-2.3h-3.2c-2 0-3.8.5-4.5 2.3l-8.8 13c-.8 1.2-.5 2.8.7 3.6 1.2.8 2.8.5 3.6-.7l4.2-6.2v27.2c0 1.4 1.1 2.6 2.4 2.6 1.5.1 2.7-1.1 2.7-2.6v-13.1c0-.7.6-1.3 1.3-1.3.7 0 1.3.6 1.3 1.3v13.1c0 1.4 1.1 2.6 2.4 2.6 1.5.1 2.7-1.1 2.7-2.6v-27.3l4.2 6.2c.8 1.2 2.4 1.5 3.6.7 1.2-.7 1.5-2.3.7-3.5zm-14.8-17c3.4 0 6.1-2.7 6.1-6.1 0-3.4-2.7-6.1-6.1-6.1-3.4 0-6.1 2.7-6.1 6.1-.1 3.3 2.7 6.1 6.1 6.1zm0 0"/><path fill="#E26082" d="M97.9 205.7c-.7-1.8-2.4-2.3-4.5-2.3h-3.2c-2 0-3.8.5-4.5 2.3l-8.8 13c-.8 1.2-.5 2.8.7 3.6 1.2.8 2.8.5 3.6-.7l4.2-6.2v2.7L82 233.5c-.1.3 0 .6.2.8.2.2.4.3.7.3h2.5v8c0 1.4 1.1 2.6 2.6 2.6 1.4 0 2.6-1.1 2.6-2.6v-8h2.6v8c0 1.4 1.1 2.6 2.6 2.6 1.4 0 2.6-1.1 2.6-2.6v-8h2.5c.3 0 .5-.1.7-.3.2-.2.2-.5.2-.8l-3.4-15.4v-2.7l4.2 6.2c.8 1.2 2.4 1.5 3.6.7 1.2-.8 1.5-2.4.7-3.6l-9-13zm-6.1-4c3.4 0 6.1-2.9 6.1-6.3s-2.7-6.1-6.1-6.1c-3.4 0-6.1 2.7-6.1 6.1 0 3.4 2.7 6.3 6.1 6.3zm0 0"/><path fill="#5DB45C" d="M132.5 218.9l-8.8-13c-.7-1.8-2.4-2.3-4.5-2.3H116c-2 0-3.8.5-4.5 2.3l-8.8 13c-.8 1.2-.5 2.8.7 3.6 1.2.8 2.8.5 3.6-.7l4.2-6.2v27.2c0 1.4 1.1 2.6 2.4 2.6 1.5.1 2.7-1.1 2.7-2.6v-13.1c0-.7.6-1.3 1.3-1.3.7 0 1.3.6 1.3 1.3v13.1c0 1.4 1.1 2.6 2.4 2.6 1.5.1 2.7-1.1 2.7-2.6v-27.3l4.2 6.2c.8 1.2 2.4 1.5 3.6.7 1.2-.7 1.5-2.3.7-3.5zm-14.8-17c3.4 0 6.1-2.7 6.1-6.1 0-3.4-2.7-6.1-6.1-6.1-3.4 0-6.1 2.7-6.1 6.1 0 3.3 2.7 6.1 6.1 6.1zm0 0"/><path fill="#EC6237" d="M149.1 205.7c-.7-1.8-2.4-2.3-4.5-2.3h-3.2c-2 0-3.8.5-4.5 2.3l-8.8 13c-.8 1.2-.5 2.8.7 3.6 1.2.8 2.8.5 3.6-.7l4.2-6.2v2.7l-3.4 15.4c-.1.3 0 .6.2.8.2.2.4.3.7.3h2.5v8c0 1.4 1.1 2.6 2.6 2.6 1.4 0 2.6-1.1 2.6-2.6v-8h2.6v8c0 1.4 1.1 2.6 2.6 2.6 1.4 0 2.6-1.1 2.6-2.6v-8h2.5c.3 0 .5-.1.7-.3.2-.2.2-.5.2-.8l-3.4-15.4v-2.7l4.2 6.2c.8 1.2 2.4 1.5 3.6.7 1.2-.8 1.5-2.4.7-3.6l-9-13zm-6-4c3.4 0 6.1-2.9 6.1-6.3s-2.7-6.1-6.1-6.1c-3.4 0-6.1 2.7-6.1 6.1-.1 3.4 2.7 6.3 6.1 6.3zm0 0"/><path fill="#98D5E9" d="M183.8 218.9l-8.8-13c-.7-1.8-2.4-2.3-4.5-2.3h-3.2c-2 0-3.8.5-4.5 2.3l-8.8 13c-.8 1.2-.5 2.8.7 3.6 1.2.8 2.8.5 3.6-.7l4.2-6.2v27.2c0 1.4 1.1 2.6 2.4 2.6 1.5.1 2.7-1.1 2.7-2.6v-13.1c0-.7.6-1.3 1.3-1.3.7 0 1.3.6 1.3 1.3v13.1c0 1.4 1.1 2.6 2.4 2.6 1.5.1 2.7-1.1 2.7-2.6v-27.3l4.2 6.2c.8 1.2 2.4 1.5 3.6.7 1.2-.7 1.5-2.3.7-3.5zm-14.8-17c3.4 0 6.1-2.7 6.1-6.1 0-3.4-2.7-6.1-6.1-6.1-3.4 0-6.1 2.7-6.1 6.1-.1 3.3 2.7 6.1 6.1 6.1zm0 0"/></g><path fill="#FFDC2E" d="M231.5 108.8V78.2c0-1.6 1.2-2.9 2.9-2.9h17c1.5 0 2.9 1.2 2.9 2.9 0 1.6-1.3 2.9-2.9 2.9h-14v9.5h12.1c1.6 0 2.9 1.3 2.9 2.9 0 1.6-1.3 2.9-2.9 2.9h-12.1v9.5h14c1.5 0 2.9 1.3 2.9 2.9 0 1.6-1.3 2.9-2.9 2.9h-16.8c-.1 0-.1-.1-.1-.1l-.1.1c-1.6-.1-2.9-1.4-2.9-2.9zm6.7-39.2c0-.4.2-.8.4-1.1l3-4.6c.6-.9 1.4-1.5 2.5-1.5 1.7 0 3.7 1 3.7 2 0 .6-.4 1.1-.9 1.6l-3.5 3.3c-1.2 1.1-2.2 1.4-3.7 1.4-.9 0-1.5-.5-1.5-1.1z"/><path fill="#98D5E9" d="M257.2 98.7c0-7.2 6-13 13.2-13 3.1 0 6 1.1 8.2 2.9 1.2.9 1.4 2.7.6 3.8-1 1.2-2.7 1.5-3.9.5-1.3-1-3-1.7-4.9-1.7-4.2 0-7.7 3.5-7.7 7.5s3.5 7.4 7.7 7.4c1.9 0 3.6-.7 4.9-1.7 1.1-.9 2.9-.7 3.9.6.8 1.1.6 2.8-.6 3.8-2.2 1.6-5.1 2.7-8.2 2.7-7.2.1-13.2-5.7-13.2-12.8z"/><path fill="#E26082" d="M287.1 107.7c-2.2-2.3-3.6-5.5-3.6-9.1 0-3.5 1.3-6.6 3.6-9.1 2.3-2.4 5.3-3.9 8.9-3.9 3.4 0 6.5 1.5 8.7 3.9 2.3 2.5 3.6 5.5 3.6 9.1 0 3.6-1.3 6.8-3.6 9.1-2.1 2.4-5.2 3.9-8.7 3.9-3.6 0-6.6-1.5-8.9-3.9zm2-9.1c0 2.2.7 4 1.9 5.5 1.3 1.2 3 1.9 5 1.9 1.8 0 3.5-.7 4.8-1.9 1.3-1.5 2-3.3 2-5.5 0-2.1-.7-4-2-5.4-1.3-1.1-3-2-4.8-2-2 0-3.7.8-5 2-1.2 1.4-1.9 3.2-1.9 5.4z"/><path fill="#5DB45C" d="M315.8 75.2c1.6 0 2.9 1.3 2.9 2.9v30.6c0 1.6-1.3 2.9-2.9 2.9-1.6 0-2.9-1.3-2.9-2.9V78c.1-1.5 1.4-2.8 2.9-2.8z"/><path fill="#EC6237" d="M322.8 98.5c.1-7 5.5-13 12.6-13 6.7 0 12.1 5 12.5 12v.3c0 .1 0 .4-.1.5-.2 1.2-1.2 2.1-2.7 2.1h-16.5c.3 1.2.8 2.5 1.8 3.4 1.1 1.2 3.2 2.2 5 2.3 1.9.2 4.1-.3 5.4-1.3 1.1-1.1 3.2-1 3.9-.2.7.7 1.2 2.3 0 3.4-2.5 2.3-5.6 3.4-9.3 3.4-7.1 0-12.6-5.8-12.6-12.9zm5.6-2.5h14.7c-.5-2.1-3.2-5.1-7.7-5.5-4.4.2-6.6 3.4-7 5.5z"/><path fill="#E26082" d="M274.9 130v42.5c0 2.2-1.9 4-4 4-2.2 0-4-1.8-4-4v-30.3l-10.4 14.4c-.8 1.1-1.9 1.7-3.2 1.7h-.2c-1.3 0-2.5-.6-3.3-1.7l-10.3-14.4v30.3c0 2.2-1.8 4-4 4s-4-1.8-4-4V130c0-2.2 1.8-4 4-4h.2c1.2 0 2.4.6 3.2 1.7l14.3 19.9 14.3-19.9c.8-1.1 1.9-1.7 3.2-1.7h.1c2.2.1 4.1 1.8 4.1 4z"/><path fill="#FFDC2E" d="M287 171.2c-3.1-3.2-5-7.6-5-12.7 0-4.9 1.9-9.1 5-12.6 3.2-3.4 7.4-5.5 12.4-5.5 4.8 0 9.1 2.1 12 5.5 3.2 3.5 5 7.7 5 12.6 0 5-1.8 9.5-5 12.7-3 3.4-7.3 5.5-12 5.5-5-.1-9.2-2.2-12.4-5.5zm2.9-12.7c0 3.1.9 5.6 2.6 7.6 1.8 1.7 4.2 2.7 6.9 2.7 2.5 0 4.8-.9 6.6-2.7 1.8-2 2.8-4.5 2.8-7.6 0-3-1-5.5-2.8-7.5-1.8-1.6-4.1-2.7-6.6-2.7-2.7 0-5.1 1.2-6.9 2.7-1.7 1.9-2.6 4.5-2.6 7.5z"/><path fill="#98D5E9" d="M353.3 155.4v17.2c0 2.1-1.7 3.8-3.7 3.8s-3.8-1.7-3.8-3.8v-17.2c0-4-3.4-7.3-7.5-7.3-4 0-7.2 3.2-7.2 7.3v17.2c0 .2 0 .4-.1.7-.4 1.7-1.9 3.1-3.8 3.1-2.2 0-3.8-1.7-3.8-3.8v-28.4c0-2.1 1.7-3.8 3.8-3.8 1.5 0 2.9.9 3.5 2.2 2.2-1.4 4.8-2.2 7.6-2.2 8.3 0 15 6.9 15 15z"/><path fill="#EC6237" d="M378.2 144.4c0 2.2-1.9 4-4 4h-1.8v20.1c2.2 0 4 1.8 4 4s-1.7 4-4 4c-4.4 0-8-3.6-8-8v-20.1h-2.1c-2.2 0-4-1.8-4-4s1.7-4 4-4h2.1V130c0-2.2 1.8-4 4-4s4 1.7 4 4v10.4h1.8c2.1 0 4 1.7 4 4z"/><path fill="#5DB45C" d="M382.5 158.4c.1-9.8 7.7-18 17.6-18 9.4 0 16.8 7 17.4 16.7v.4c0 .1 0 .5-.1.6-.2 1.7-1.7 2.9-3.7 2.9h-22.9c.4 1.7 1.2 3.5 2.4 4.8 1.5 1.7 4.4 3 6.9 3.2 2.6.2 5.7-.4 7.5-1.8 1.5-1.6 4.5-1.4 5.4-.2.9 1 1.7 3.2 0 4.7-3.5 3.2-7.8 4.8-12.9 4.8-9.9-.2-17.6-8.3-17.6-18.1zm7.8-3.5h20.4c-.7-2.9-4.4-7.1-10.7-7.6-6.1.2-9.1 4.6-9.7 7.6z"/><path fill="#FFDC2E" d="M422.7 166.1c1.3-1.7 3.8-1.9 5.4-.6 1.9 1.6 5.1 3.2 7.9 3.2 1.9 0 3.7-.6 4.9-1.4 1-.9 1.3-1.6 1.3-2.2 0-.4-.1-.5-.2-.7-.1-.2-.4-.5-.9-.9-1-.7-3.2-1.5-5.8-2h-.1c-2.2-.4-4.4-1-6.3-1.9-1.9-.9-3.7-2.2-5-4.2-.8-1.3-1.2-2.9-1.2-4.5 0-3.3 1.9-6.1 4.2-7.9 2.5-1.7 5.5-2.7 8.9-2.7 5 0 8.5 2.4 10.8 4 1.7 1.2 2.2 3.5 1.2 5.3-1.2 1.7-3.5 2.2-5.3 1-2.3-1.5-4.3-2.7-6.6-2.7-1.8 0-3.4.6-4.3 1.3-.9.6-1.2 1.3-1.2 1.7 0 .3 0 .4.1.6.1.1.3.4.8.7.9.6 2.8 1.3 5.3 1.7l.1.1h.1c2.4.4 4.6 1.1 6.7 2.1 1.9.9 3.9 2.2 5.1 4.2.9 1.4 1.4 3.1 1.4 4.8 0 3.5-1.9 6.5-4.5 8.4-2.6 1.8-5.8 2.9-9.4 2.9-5.6-.1-9.9-2.7-12.8-5-1.7-1.2-1.9-3.7-.6-5.3z"/><path fill="#E26082" d="M455.1 166.1c1.3-1.7 3.8-1.9 5.4-.6 1.9 1.6 5.1 3.2 7.9 3.2 1.9 0 3.7-.6 4.9-1.4 1-.9 1.3-1.6 1.3-2.2 0-.4-.1-.5-.2-.7-.1-.2-.4-.5-.9-.9-1-.7-3.2-1.5-5.8-2h-.1c-2.2-.4-4.4-1-6.3-1.9-1.9-.9-3.7-2.2-5-4.2-.8-1.3-1.2-2.9-1.2-4.5 0-3.3 1.9-6.1 4.2-7.9 2.5-1.7 5.5-2.7 8.9-2.7 5 0 8.5 2.4 10.8 4 1.7 1.2 2.2 3.5 1.2 5.3-1.2 1.7-3.5 2.2-5.3 1-2.3-1.5-4.3-2.7-6.6-2.7-1.8 0-3.4.6-4.3 1.3-.9.6-1.2 1.3-1.2 1.7 0 .3 0 .4.1.6.1.1.3.4.8.7.9.6 2.8 1.3 5.3 1.7l.1.1h.1c2.4.4 4.6 1.1 6.7 2.1 1.9.9 3.9 2.2 5.1 4.2.9 1.4 1.4 3.1 1.4 4.8 0 3.5-1.9 6.5-4.5 8.4-2.6 1.8-5.8 2.9-9.4 2.9-5.6-.1-9.9-2.7-12.8-5-1.6-1.2-1.9-3.7-.6-5.3z"/><path fill="#98D5E9" d="M491.9 171.2c-3.1-3.2-5-7.6-5-12.7 0-4.9 1.9-9.1 5-12.6 3.2-3.4 7.4-5.5 12.4-5.5 4.8 0 9.1 2.1 12 5.5 3.2 3.5 5 7.7 5 12.6 0 5-1.8 9.5-5 12.7-3 3.4-7.3 5.5-12 5.5-5-.1-9.2-2.2-12.4-5.5zm2.9-12.7c0 3.1.9 5.6 2.6 7.6 1.8 1.7 4.2 2.7 6.9 2.7 2.5 0 4.8-.9 6.6-2.7 1.8-2 2.8-4.5 2.8-7.6 0-3-1-5.5-2.8-7.5-1.8-1.6-4.1-2.7-6.6-2.7-2.7 0-5.1 1.2-6.9 2.7-1.7 1.9-2.6 4.5-2.6 7.5z"/><path fill="#EC6237" d="M551.5 144.2c0 2-1.7 3.8-3.8 3.8-1.7 0-3.1.4-4.3 1.4-1.4.9-2.4 2.1-3.3 3.5-1.7 2.3-2.6 5-3 6v13.7c0 2.1-1.8 3.8-4 3.8-2.1 0-3.8-1.7-3.8-3.8v-28.4c0-2.1 1.7-3.7 3.8-3.7 2.2 0 4 1.7 4 3.7v.5c.4-.5 1-1.1 1.5-1.4 2.4-1.6 5.5-2.9 9.1-2.8 2.1 0 3.8 1.6 3.8 3.7z"/><path fill="#5DB45C" d="M564.5 131.4c0 2.2-1.7 4-3.9 4s-3.9-1.8-3.9-4v-1.5c0-2.2 1.7-3.9 3.9-3.9s3.9 1.7 3.9 3.9v1.5zm0 13v28.1c0 2.2-1.7 3.9-3.9 3.9s-3.9-1.7-3.9-3.9v-28.1c0-2.3 1.7-4 3.9-4 2.3.1 3.9 1.7 3.9 4z"/><path fill="#010202" d="M244.1 221.9c-1.3 1.7-3.3 2.8-5.5 2.8-3.9 0-7-3.2-7-7.2s3.1-7.2 7-7.2c2.3 0 4.3 1.1 5.5 2.8v-8.3c0-.4.3-.7.7-.7.4 0 .7.3.7.7V224c0 .4-.3.7-.7.7-.4 0-.7-.3-.7-.7v-2.1zm0-4.2v-.5c-.1-3.1-2.6-5.6-5.5-5.6-3 0-5.5 2.6-5.5 5.8 0 3.2 2.5 5.7 5.5 5.7 2.9.1 5.3-2.3 5.5-5.4zm5.3-.2c0-4 3.1-7.2 7-7.2 3.7 0 6.7 2.9 7 6.7v.1c0 .4-.3.6-.7.6h-11.8c.1 3.2 2.6 5.5 5.6 5.5 1.9 0 3.7-1 4.7-2.6.2-.4.6-.4.9-.2.3.2.4.6.2 1-1.2 2-3.4 3.3-5.8 3.3-4 0-7.1-3.3-7.1-7.2zm1.5-1.2h10.9c-.5-2.7-2.8-4.7-5.4-4.7-2.7.1-5 2-5.5 4.7zm39.6-9.3l-6.6 9.2c-.1.2-.4.3-.6.3h-.1c-.3 0-.5-.1-.6-.3L276 207v17c0 .4-.3.7-.7.7-.4 0-.7-.3-.7-.7v-19.1c0-.2.1-.4.3-.6l.1-.1c.3-.2.8-.1 1 .2l7.3 10.2 7.3-10.2c.2-.3.7-.4 1-.2l.2.2c.1.1.1.3.1.4V224c0 .4-.3.7-.7.7-.4 0-.7-.3-.7-.7v-17zm6 10.5c0-4 3.1-7.2 7-7.2 3.7 0 6.7 2.9 7 6.7v.1c0 .4-.3.6-.7.6H298c.1 3.2 2.6 5.5 5.6 5.5 1.9 0 3.7-1 4.7-2.6.2-.4.6-.4.9-.2.3.2.4.6.2 1-1.2 2-3.4 3.3-5.8 3.3-4 0-7.1-3.3-7.1-7.2zm1.5-1.2h10.9c-.5-2.7-2.8-4.7-5.4-4.7-2.7.1-5 2-5.5 4.7zm16.1-11.5c0-.4.3-.7.7-.7.4 0 .7.3.7.7V224c0 .4-.3.7-.7.7-.4 0-.7-.3-.7-.7v-19.2zm5.7 6.1c0-.4.3-.7.7-.7.4 0 .7.3.7.7v7.9c0 2.5 2 4.4 4.4 4.5 2.5 0 4.5-2 4.5-4.5v-7.9c0-.4.4-.7.7-.7.4 0 .7.3.7.7v7.9c0 3.2-2.6 5.9-5.9 5.9-3.2 0-5.8-2.7-5.8-5.9v-7.9zm27 5.2c0-2.4-2-4.4-4.4-4.4-2.4 0-4.4 2-4.5 4.4v7.9c0 .1-.1.2-.1.3-.1.2-.3.3-.5.3h-.3c-.2-.1-.4-.2-.5-.4V211c0-.4.3-.7.7-.7.4 0 .7.3.7.7v1.4c1.1-1.3 2.7-2.1 4.5-2.1 3.2 0 5.9 2.7 5.9 5.9v7.8c0 .4-.3.7-.7.7-.4 0-.7-.3-.7-.7v-7.9zm5-1.7c0-.3.2-.5.6-.5h6.3c.3 0 .6.2.6.5 0 .4-.3.6-.6.6h-6.3c-.4 0-.6-.2-.6-.6zm16.7 9.9s0-.1 0 0l-8-19.1c-.1-.4 0-.8.4-.9.4-.2.8 0 .9.4l7.4 17.6 7.4-17.6c.1-.4.6-.5.9-.4.4.1.5.6.4.9l-8 18.9c0 .3-.2.5-.4.6-.1 0-.2.1-.3.1h-.3c-.2-.2-.3-.4-.4-.5zm24-13.3v13c0 .4-.3.7-.7.7-.4 0-.7-.3-.7-.7v-2.2c-1.2 1.7-3.2 2.9-5.4 2.9-3.8 0-6.8-3.3-6.8-7.2 0-3.9 3-7.2 6.8-7.2 2.2 0 4.2 1.1 5.4 2.8V211c0-.4.3-.7.7-.7.3-.1.7.2.7.7zm-1.5 6.5c0-3.2-2.4-5.8-5.4-5.8-2.9 0-5.4 2.6-5.4 5.8 0 3.2 2.5 5.8 5.4 5.8 3 0 5.4-2.6 5.4-5.8zm6-6.6c0-.4.3-.7.7-.7.4 0 .7.3.7.7v7.9c0 2.5 2 4.4 4.4 4.5 2.5 0 4.5-2 4.5-4.5v-7.9c0-.4.4-.7.7-.7.4 0 .7.3.7.7v7.9c0 3.2-2.6 5.9-5.9 5.9-3.2 0-5.8-2.7-5.8-5.9v-7.9zm15.5 12.7l4.4-6-4.4-6.1c-.2-.4-.1-.8.1-1 .3-.2.8-.1 1 .2l4.2 5.7 4.2-5.7c.2-.3.7-.4.9-.2.4.2.4.6.2 1l-4.4 6.1 4.4 6c.2.3.1.7-.2 1-.1.1-.2.1-.4.1s-.5-.1-.6-.3l-4.2-5.7-4.2 5.7c-.1.2-.4.3-.6.3-.1 0-.3-.1-.4-.1-.1-.3-.2-.7 0-1zm23.5-18.8c0-.4.3-.7.7-.7.4 0 .7.3.7.7V224c0 .4-.3.7-.7.7-.4 0-.7-.3-.7-.7v-19.2zm4.9 12.7c0-4 3.1-7.2 7-7.2 3.7 0 6.7 2.9 7 6.7v.1c0 .4-.3.6-.7.6h-11.8c.1 3.2 2.6 5.5 5.6 5.5 1.9 0 3.7-1 4.7-2.6.2-.4.6-.4.9-.2.3.2.4.6.2 1-1.2 2-3.4 3.3-5.8 3.3-4 0-7.1-3.3-7.1-7.2zm1.5-1.2h10.9c-.5-2.7-2.8-4.7-5.4-4.7-2.7.1-4.9 2-5.5 4.7zm23.7-11.5c0-.4.3-.7.7-.7h5.8c3.2 0 5.9 2.7 5.9 5.9s-2.6 5.9-5.9 5.9l-5.1.1v8.1c0 .4-.3.7-.7.7-.4 0-.7-.3-.7-.7v-19.3zm6.5 9.6c2.4 0 4.4-2 4.4-4.5s-2-4.4-4.4-4.4h-5.1v8.9h5.1zm14.5 10.3c-3.9 0-7-3.2-7-7.2s3.1-7.2 7-7.2c3.7 0 6.7 2.9 7 6.7v.1c0 .4-.3.6-.7.6h-11.8c.1 3.2 2.6 5.5 5.6 5.5 1.9 0 3.7-1 4.7-2.6.2-.4.6-.4.9-.2.3.2.4.6.2 1-1.3 2-3.5 3.3-5.9 3.3zm0-13c-2.7 0-5 1.9-5.5 4.7h10.9c-.5-2.8-2.8-4.7-5.4-4.7zm-1.7-3.8c.4 0 .6-.1.9-.4l2.4-2.3c.2-.2.3-.4.3-.5 0-.3-.7-.7-1.2-.7-.4 0-.6.2-.8.5l-1.8 2.7c-.1.1-.1.2-.1.3-.1.3.1.4.3.4zm22.5 8.2c0-2.4-2-4.4-4.4-4.4-2.4 0-4.4 2-4.5 4.4v7.9c0 .1-.1.2-.1.3-.1.2-.3.3-.5.3h-.2c-.2-.1-.4-.2-.5-.4V211c0-.4.3-.7.7-.7.4 0 .7.3.7.7v1.4c1.1-1.3 2.7-2.1 4.5-2.1 3.2 0 5.9 2.7 5.9 5.9v7.8c0 .4-.3.7-.7.7-.4 0-.7-.3-.7-.7v-7.9zm6.2-9.9c0-.4.3-.7.7-.7.4 0 .7.3.7.7v.7c0 .4-.3.8-.7.8-.4 0-.7-.4-.7-.8v-.7zm0 4.8c0-.4.3-.7.7-.7.4 0 .7.3.7.7v13c0 .4-.3.7-.7.7-.4 0-.7-.3-.7-.7v-13zm6.6-6.2c0-.4.3-.7.7-.7.4 0 .7.3.7.7V224c0 .4-.3.7-.7.7-.4 0-.7-.3-.7-.7v-19.2z"/></svg>