<svg xmlns="http://www.w3.org/2000/svg" xmlns:xlink="http://www.w3.org/1999/xlink" viewBox="0 0 340.2 425.2"><path fill="#FFDC2E" d="M5.3 109.1c-.3-.2-.5-.6-.6-.9l-1.9-4.6c-.4-.9-.4-1.8.2-2.6.9-1.2 2.7-2.3 3.4-1.7.4.3.6.8.7 1.5l.7 4.3c.2 1.5-.1 2.4-.9 3.5-.5.6-1.1.9-1.6.5zm25.8 25.2L8.3 118.5c-1.2-.8-1.5-2.4-.7-3.6l.1-.1 8.7-12.6c.8-1.1 2.4-1.5 3.6-.7 1.2.8 1.5 2.5.7 3.6l-7.3 10.5 7.1 4.9 6.2-9c.8-1.2 2.5-1.4 3.6-.7 1.2.8 1.5 2.5.7 3.6l-6.2 9 7.1 4.9 7.3-10.5c.8-1.1 2.4-1.5 3.6-.6 1.2.8 1.4 2.5.7 3.6l-8.7 12.6-.1.1v.1c-.8 1.2-2.4 1.5-3.6.7z"/><path fill="#98D5E9" d="M37.5 109.5c-4.8-4.5-4.9-12-.5-16.8 1.9-2.1 4.5-3.3 7-3.7 1.4-.2 2.7.7 2.9 2 .2 1.5-.7 2.7-2.1 2.9-1.5.3-3 1-4.2 2.2-2.6 2.8-2.5 7.2.2 9.7 2.6 2.5 7.1 2.3 9.7-.5 1.2-1.2 1.8-2.8 2-4.3.1-1.3 1.3-2.3 2.8-2.2 1.3.2 2.2 1.3 2.2 2.8-.3 2.5-1.4 5.1-3.3 7.2-4.4 4.7-12 5.1-16.7.7z"/><path fill="#E26082" d="M62.4 95.9c-2.9-.4-5.7-1.9-7.7-4.5-2-2.5-2.8-5.4-2.6-8.5.3-3.1 1.6-5.8 4.1-7.8 2.4-1.9 5.5-2.6 8.4-2.1 3.1.4 5.7 1.9 7.7 4.4 2.1 2.6 3 5.6 2.6 8.5-.1 2.9-1.5 5.8-3.9 7.7-2.6 2.1-5.6 2.7-8.6 2.3zm-3.7-7.6c1.3 1.6 2.8 2.5 4.4 2.8 1.6.2 3.2-.3 4.6-1.5 1.3-1 2.1-2.4 2.3-4.1.1-1.8-.4-3.5-1.7-5-1.2-1.5-2.8-2.4-4.5-2.7-1.6-.1-3.2.3-4.5 1.3-1.4 1.1-2.1 2.7-2.4 4.2 0 1.8.6 3.5 1.8 5z"/><path fill="#5DB45C" d="M68.3 55c1.2-.8 2.9-.4 3.6.8l14.9 23.4c.8 1.2.4 2.8-.8 3.6-1.2.8-2.8.4-3.6-.8L67.5 58.6c-.8-1.2-.4-2.8.8-3.6z"/><path fill="#EC6237" d="M85.3 69.1c-2.8-5.8-.6-12.8 5.2-15.6 5.5-2.7 11.9-.7 15 4.8 0 0 .1.1.1.2s.1.3.1.4c.4 1.1-.2 2.2-1.4 2.8l-13.5 6.6c.7.9 1.7 1.7 2.8 2.1 1.4.6 3.4.5 5-.1s3.2-1.9 3.9-3.2c.4-1.4 2.2-2.1 3.1-1.7.8.3 1.9 1.4 1.3 2.8-1.1 2.9-3.2 5-6.2 6.5-5.7 2.7-12.5.1-15.4-5.6zm3.6-4.4l12-5.8c-1.2-1.5-4.6-2.9-8.5-1.4-3.5 1.9-4 5.3-3.5 7.2z"/><path fill="#E26082" d="M147.4 28.9l5.4 27.3c.3 1.4-.7 2.8-2.1 3.1-1.4.3-2.8-.6-3-2l-3.9-19.4-4.8 10.4c-.4.8-1 1.3-1.9 1.5-.8.2-1.7 0-2.3-.6l-8.4-7.9 3.9 19.4c.3 1.4-.6 2.8-2.1 3.1-1.4.3-2.8-.6-3-2l-5.4-27.3c-.3-1.4.6-2.8 2-3h.1c.7-.1 1.6.1 2.2.7L135.7 43l6.7-14.6c.4-.8 1-1.3 1.9-1.5 1.4-.2 2.8.7 3.1 2z"/><path fill="#FFDC2E" d="M161.9 54.9c-2.1-2-3.3-4.9-3.4-8.2-.1-3.2 1.1-6 3.1-8.3 2.1-2.2 4.8-3.7 8-3.7 3.1-.1 6 1.3 7.9 3.5 2.2 2.2 3.4 5 3.4 8.2.1 3.3-1.1 6.2-3.2 8.3-1.9 2.2-4.7 3.7-7.8 3.7-3.1 0-5.9-1.3-8-3.5zm1.7-8.3c0 2 .7 3.7 1.8 5 1.2 1.1 2.8 1.7 4.5 1.7 1.6 0 3.1-.7 4.3-1.8 1.2-1.3 1.8-3 1.8-5 0-1.9-.7-3.6-1.9-4.9-1.2-1-2.7-1.7-4.4-1.7-1.8 0-3.3.8-4.5 1.9-1 1.2-1.6 2.9-1.6 4.8z"/><path fill="#98D5E9" d="M206.9 47.6l-1.6 11.1c-.2 1.4-1.4 2.3-2.8 2.1-1.3-.2-2.3-1.5-2.1-2.8l1.6-11.1c.4-2.6-1.5-5-4.2-5.4-2.6-.4-5 1.4-5.3 4l-1.6 11.1c0 .1 0 .3-.2.5-.4 1.1-1.5 1.8-2.8 1.6-1.4-.2-2.3-1.5-2.1-2.8l1.6-11.1 1-7.2c.2-1.4 1.4-2.3 2.8-2.1 1 .1 1.8.8 2.1 1.8 1.5-.7 3.3-1 5.2-.7 5.5.7 9.2 5.8 8.4 11z"/><path fill="#EC6237" d="M225.5 45.1c-.4 1.4-1.9 2.2-3.2 1.8l-1.1-.3-3.4 12.7c1.4.4 2.2 1.8 1.8 3.2-.4 1.4-1.8 2.2-3.2 1.8-2.8-.8-4.4-3.6-3.7-6.4l3.4-12.7-1.3-.4c-1.4-.4-2.2-1.8-1.8-3.2.4-1.4 1.8-2.2 3.2-1.8l1.3.4 1.8-6.6c.4-1.4 1.8-2.2 3.2-1.8 1.4.4 2.2 1.8 1.8 3.2l-1.8 6.6 1.1.3c1.4.4 2.3 1.8 1.9 3.2z"/><path fill="#5DB45C" d="M226.7 54.8c2.5-5.9 9.1-9 15.1-6.6 5.7 2.3 8.5 8.4 6.4 14.4 0 0-.1.1-.1.2s-.1.3-.2.4c-.6 1-1.8 1.3-3 .8L231 58.4c-.2 1.1-.2 2.4.3 3.5.5 1.4 1.9 2.9 3.4 3.7 1.5.8 3.6 1.1 5 .7 1.3-.6 3 .3 3.3 1.2.3.8.2 2.3-1.2 2.8-2.9 1.1-5.9 1-9-.3-5.8-2.5-8.4-9.3-6.1-15.2zm5.7-.2l12.4 5c.3-1.9-.9-5.4-4.6-7.2-3.8-1.4-6.8.5-7.8 2.2z"/><path fill="#FFDC2E" d="M249.3 69.8c1.3-.6 2.8.1 3.2 1.4.5 1.5 1.8 3.5 3.5 4.4 1.1.6 2.3.9 3.2.8.9-.2 1.3-.5 1.4-.8.1-.2.1-.3.1-.5 0-.1 0-.4-.2-.8-.3-.7-1.3-1.9-2.6-3-1.1-1-2.2-2-2.9-3.1-.8-1.2-1.4-2.5-1.5-4 0-1 .2-2 .8-3 1.1-1.9 3.1-2.9 5-3.1 2-.2 4 .3 5.9 1.4 2.8 1.6 4 4.1 4.8 5.8.6 1.2.1 2.7-1.1 3.4-1.2.6-2.7.1-3.3-1.2-.8-1.6-1.6-2.9-2.9-3.7-1-.6-2.1-.8-2.9-.7-.7.1-1.1.4-1.2.6-.1.2-.1.2-.1.4 0 .1 0 .3.2.7.3.7 1.2 1.7 2.4 2.7v.1c1.2 1 2.3 2.1 3.1 3.4.8 1.1 1.5 2.5 1.5 4.1 0 1.1-.2 2.2-.8 3.1-1.2 2-3.2 3-5.3 3.3-2.1.2-4.2-.3-6.2-1.4-3.2-1.9-4.8-4.8-5.6-7-.5-1.3.2-2.8 1.5-3.3z"/><path fill="#E26082" d="M267.6 80.8c1.4-.4 2.8.5 3 1.8.3 1.6 1.4 3.7 2.9 4.8 1 .8 2.2 1.1 3.1 1.2.9-.1 1.3-.3 1.5-.6.1-.2.2-.3.2-.5 0-.1 0-.4-.1-.8-.2-.8-1.1-2-2.2-3.3-1-1.1-1.9-2.3-2.5-3.5-.6-1.3-1-2.6-.9-4.1.1-1 .5-2 1.2-2.8 1.3-1.7 3.4-2.4 5.3-2.4 2 .1 3.9.8 5.7 2.1 2.6 2 3.5 4.6 4.1 6.3.4 1.3-.2 2.7-1.5 3.2-1.3.4-2.7-.2-3.2-1.6-.6-1.7-1.2-3.1-2.4-4-.9-.7-2-1-2.8-1-.7 0-1.1.2-1.3.4l-.2.4c0 .1 0 .3.1.7.2.7.9 1.8 2.1 3v.1c1.1 1.2 2 2.4 2.7 3.7.7 1.2 1.1 2.7 1 4.2-.1 1.1-.5 2.2-1.2 3-1.4 1.8-3.6 2.6-5.7 2.6-2.1-.1-4.2-.8-6-2.2-2.9-2.3-4.1-5.3-4.7-7.7-.3-1.4.5-2.7 1.8-3z"/><path fill="#98D5E9" d="M284.3 98.2c0-2.9 1.3-5.8 3.6-8.1s5.1-3.3 8.1-3.5c3.1 0 6 .9 8.2 3.2 2.2 2.2 3.2 5.2 3 8.1-.1 3.1-1.3 5.9-3.5 8.1-2.3 2.3-5.2 3.5-8.2 3.5-2.9.2-5.9-.9-8.1-3.1-2.3-2.2-3.2-5.2-3.1-8.2zm7.2-4.5c-1.4 1.4-2.2 3-2.4 4.7 0 1.6.7 3.2 1.9 4.4 1.2 1.2 2.7 1.8 4.3 1.9 1.8-.1 3.4-.8 4.8-2.2 1.4-1.4 2.1-3 2.2-4.7-.1-1.6-.6-3.2-1.8-4.3-1.3-1.3-2.9-1.8-4.5-2-1.5.1-3.1.8-4.5 2.2z"/><path fill="#EC6237" d="M323.6 116.8c-1.1.8-2.6.6-3.5-.5-.7-.9-1.4-1.4-2.4-1.7-1-.4-2.1-.5-3.1-.4-1.9 0-3.7.6-4.3.8l-7.1 5.4c-1.1.8-2.7.6-3.6-.6-.8-1.1-.6-2.7.5-3.5l14.8-11.2c1.1-.8 2.6-.6 3.5.5.9 1.1.7 2.7-.4 3.5l-.3.2c.4 0 1 .1 1.3.2 1.8.6 3.7 1.7 5 3.6.9 1.3.7 2.9-.4 3.7z"/><path fill="#5DB45C" d="M328.8 125.4l-15.5 9.8c-1.2.8-2.7.4-3.5-.8-.8-1.2-.4-2.8.8-3.5l15.5-9.8c1.3-.8 2.8-.4 3.5.8.8 1.2.4 2.7-.8 3.5zm7.2-4.6c-1.2.8-2.8.5-3.5-.8-.8-1.2-.4-2.8.8-3.5l.8-.5c1.2-.8 2.8-.4 3.5.8.8 1.2.4 2.8-.8 3.5l-.8.5z"/><path d="M42.2 349.4c-2.1.3-4.4-.4-6-2.1-2.7-2.9-2.5-7.4.4-10.2 2.9-2.8 7.5-2.8 10.2 0 1.6 1.7 2.2 3.9 1.8 6.1l6.1-5.8c.3-.3.7-.3 1 0 .3.3.3.7 0 1l-9.1 8.7-.2.2-4.8 4.6c-.3.3-.7.3-1 0-.3-.3-.3-.8 0-1l1.6-1.5zm3.1-2.9l.3-.3c2.2-2.3 2.3-5.8.2-8-2.1-2.2-5.8-2.2-8.2 0-2.3 2.2-2.5 5.9-.3 8.1 2.1 2.2 5.7 2.2 8 .2zm4.5 4.1c2.6-3.1 7.2-3.5 10.2-1 2.9 2.5 3.2 6.7.9 9.8l-.1.1c-.3.3-.7.3-1 0l-9.2-7.8c-2 2.5-1.6 6 .7 8 1.5 1.3 3.5 1.7 5.3 1 .4-.1.8.1.9.4.1.4-.1.8-.5.9-2.3.7-4.8.3-6.7-1.3-2.9-2.5-3.2-7.1-.5-10.1zm1.9.1l8.4 7.2c1.4-2.4 1-5.5-1.1-7.2-2.1-1.8-5.1-1.8-7.3 0zm38 15.8L79.2 371c-.3.1-.5.1-.7 0h-.1c-.2-.1-.4-.3-.4-.6l-.9-11.4-9 14.7c-.2.3-.7.4-1 .2-.4-.2-.5-.7-.3-1l10.1-16.6c.1-.2.3-.3.6-.3h.1c.4 0 .7.3.8.7l1 12.7 11.7-4.9c.4-.2.8 0 1 .4 0 .1 0 .2.1.3 0 .1 0 .3-.1.4L82 382c-.2.3-.7.4-1 .2-.4-.2-.4-.7-.2-1l8.9-14.7zm.5 12.4c1.7-3.7 6-5.4 9.6-3.7 3.4 1.6 4.9 5.6 3.6 9.2v.1c-.2.4-.6.5-.9.3l-10.9-5c-1.2 3 .1 6.2 2.8 7.5 1.8.8 3.8.6 5.4-.4.3-.2.8-.1 1 .2.2.4.1.8-.2 1-2 1.3-4.5 1.6-6.8.5-3.8-1.8-5.3-6.1-3.6-9.7zm1.8-.5l10.1 4.7c.7-2.7-.6-5.5-3-6.6-2.5-1.2-5.4-.4-7.1 1.9zm19.6-4.2c.1-.4.6-.6.9-.4.4.2.6.6.4.9l-7 18.2c-.1.4-.6.6-1 .4-.4-.1-.6-.6-.4-.9l7.1-18.2zm3.1 7.9c.1-.4.5-.6.9-.5s.6.5.5.9l-2.4 7.6c-.7 2.4.6 4.9 3 5.7 2.4.7 5-.6 5.7-3l2.3-7.6c.1-.4.6-.6.9-.5.4.1.6.5.5.9l-2.3 7.6c-1 3.1-4.3 4.9-7.5 4-3.1-1-4.9-4.3-3.9-7.5l2.3-7.6zm25.4 12.1c.5-2.4-1.1-4.8-3.5-5.3s-4.8 1.1-5.4 3.5l-1.6 7.8v.1c-.1.1-.1.2-.2.3-.2.2-.4.2-.6.2h-.2c-.2-.1-.3-.3-.4-.5v-.4l1.6-7.8v-.2l1-4.9c.1-.4.4-.6.8-.6.4.1.6.5.5.8l-.3 1.4c1.3-1 3.1-1.5 4.9-1.2 3.2.7 5.3 3.8 4.6 7l-1.6 7.8c-.1.4-.5.6-.8.6-.4-.1-.6-.4-.6-.8l1.8-7.8zm5.6-.8c0-.3.3-.5.6-.5l6.3.8c.3 0 .5.3.5.6 0 .4-.3.6-.6.5l-6.3-.8c-.4 0-.6-.3-.5-.6zm16.7 11.7s0-.1 0 0l-7.3-19.8c-.1-.4.1-.8.4-.9.4-.2.8 0 .9.4l6.7 18.2 8.3-17.5c.1-.4.6-.5.9-.3.4.2.5.6.3 1l-9 18.8c0 .3-.2.5-.4.6-.1 0-.2.1-.3 0h-.3c0-.2-.1-.4-.2-.5zm25-13.9l.7 13.2c0 .4-.3.7-.7.8-.4 0-.7-.3-.8-.7l-.1-2.2c-1.2 1.8-3.1 3.1-5.3 3.2-3.9.2-7.1-2.9-7.3-7-.2-4 2.7-7.5 6.5-7.7 2.2-.1 4.3.9 5.7 2.6l-.1-2.2c0-.4.3-.7.7-.8.3.1.6.4.7.8zm-1.1 6.7c-.2-3.3-2.8-5.8-5.8-5.6-3 .2-5.4 2.9-5.2 6.2.2 3.3 2.8 5.8 5.8 5.6 3-.2 5.3-2.9 5.2-6.2zm5.6-7.2c-.1-.4.2-.8.6-.8.4-.1.8.2.8.6l1.2 7.9c.4 2.5 2.7 4.2 5.1 3.8 2.5-.4 4.2-2.7 3.8-5.2l-1.2-7.9c-.1-.4.2-.8.6-.8.4-.1.8.2.8.6l1.2 7.9c.5 3.3-1.7 6.3-5 6.8s-6.3-1.8-6.8-5l-1.1-7.9zm18.6 10l2.9-7-5.8-4.9c-.3-.3-.3-.7-.1-1 .2-.3.7-.3 1-.1l5.5 4.6 2.7-6.6c.2-.4.6-.5.9-.4.4.1.6.5.4.9l-2.9 7.1 5.9 4.9c.3.3.3.7 0 1-.1.1-.2.2-.3.2-.2.1-.5 0-.7-.1l-5.5-4.6-2.7 6.6c-.1.2-.3.4-.5.4h-.4c-.4-.2-.5-.6-.4-1zm17.6-24.9c-.1-.4.1-.8.4-.9.4-.1.8.1.9.4l6.6 18.4c.1.4-.1.8-.5.9-.4.1-.8-.1-.9-.4l-6.5-18.4zm9.5 10.4c-1.6-3.7-.1-8 3.6-9.6 3.5-1.5 7.4 0 9.2 3.4v.1c.2.4 0 .7-.4.9l-11 4.8c1.4 2.9 4.7 4.1 7.5 2.9 1.8-.8 3-2.4 3.3-4.3 0-.4.4-.6.8-.6.4.1.7.4.6.8-.3 2.3-1.8 4.4-4.1 5.4-3.6 1.7-7.9-.1-9.5-3.8zm1-1.6l10.2-4.5c-1.5-2.3-4.5-3.2-7-2.1-2.6 1.1-3.9 3.8-3.2 6.6zm16-20.8c-.2-.3-.1-.8.2-1h.1l5-3.1c2.8-1.7 6.5-.8 8.2 2 1.7 2.8.9 6.5-1.9 8.2l-4.4 2.8 4.3 7c.2.3.1.8-.3 1-.3.2-.8.1-1-.2l-10.2-16.7zm10.8 4.8c2.1-1.3 2.8-4.1 1.5-6.2-1.3-2.1-4.1-2.8-6.2-1.5l-4.4 2.7 4.8 7.7 4.3-2.7zm6.5-12.7c-.1-.1-.1-.2-.1-.3l-.2-3.3c0-.4.1-.7.3-.9.5-.3 1.2-.4 1.4-.2.1.1.1.4.1.6l-.5 3.3c-.1.5-.2.7-.5.9-.2 0-.4 0-.5-.1zm14.8 6.4c0-.4-.4-.7-.8-.7-.3 0-.7.4-.6.8.2 1.9-.6 3.8-2.2 5-2.4 1.8-5.9 1.4-7.9-1.1l9.6-7.2c.3-.2.4-.6.2-1l-.1-.1c-2.5-2.9-6.7-3.5-9.8-1.2-3.2 2.4-3.7 6.9-1.3 10.2 2.4 3.2 6.9 3.9 10.1 1.6 2.1-1.6 3-3.9 2.8-6.3zm-3.4-3.8l-8.9 6.7c-1.2-2.6-.6-5.5 1.6-7.2 2.2-1.7 5.3-1.5 7.3.5zm12-10.9c-1.7-1.8-4.5-2-6.4-.3-1.8 1.7-1.9 4.5-.3 6.4l5.4 5.9.1.1c.1.1.1.2.1.3 0 .2-.1.4-.2.6l-.1.1c-.2.1-.4.1-.6 0h-.2l-.1-.1-5.4-5.9-.2-.2-3.4-3.7c-.3-.3-.3-.7 0-1 .3-.3.7-.2 1 .1l.9 1c-.1-1.7.6-3.4 1.9-4.6 2.4-2.2 6.2-2 8.4.4l5.4 5.9c.3.3.2.8 0 1-.3.3-.7.3-1 0l-5.3-6zm-2.6-11.6c-.3-.3-.3-.7 0-1 .3-.3.8-.3 1 0l.5.5c.3.3.3.8 0 1.1-.3.3-.8.3-1.1 0l-.4-.6zm3.5 3.3c-.3-.3-.3-.7 0-1 .3-.3.7-.3 1 0l9.6 9.1c.3.3.3.7 0 1-.3.3-.7.3-1 0l-9.6-9.1zm-.1-9.1c-.3-.3-.3-.7-.1-1 .3-.3.7-.3 1-.1l14.6 13c.3.3.3.7 0 1-.3.3-.7.3-1 .1l-14.5-13z"/><path fill="#98D5E9" d="M290.3 291.7c13.1-21.2 20.6-46.2 20.6-72.9 0-76.8-62.2-138.9-139-138.9S33 142 33 218.8c0 26.7 7.6 51.7 20.6 72.9h236.7z"/><defs><circle id="a" cx="172" cy="218.8" r="139"/></defs><clipPath id="b"><use xlink:href="#a" overflow="visible"/></clipPath><g fill="#5DB45C" clip-path="url(#b)"><path d="M238.8 174.8s.7.2 1.3.2c.3 0 .2-.6.2-.6-.2-.2-.4-.2-1-.9-2.5-2.2-5.1-4.5-7.6-7-.6-.6-1-2.5-.3-3.2 1-1.3 1.3 0 2.2.6 2.5 2.2 5.1 4.1 7.6 6 .3.3.6 1 1 1.6 1.3 3.2 2.2 6.4 3.5 9.2.3.3 1 .6 1.3.6 1-1.3 1.6-2.2 2.2-3.2-.6-1.3-1.6-2.9-2.2-4.1 1 0 1.6 0 1.9-.3 2.2-1.6 3.8-2.5 4.1 1.6 0 1.6.6 3.2 1.6 4.1 1.3 1.3 3.2 1.9 4.8 2.5 1 .3 1.9 0 2.9 0s1.9.3 2.5 0c1-.3 2.2-.6 4.1-1.3-1 3.8-1.6 7-2.5 9.9-.3 1-1.3 1.9-1.9 1.9-2.5.3-5.1 1-7.3.3-3.2-.6-6-1.9-8.9-3.2-2.2-1-4.1-.3-4.8 2.2 0 .6-1.6 2.2-1.6 1.9-1.9-1-3.8-2.5-5.7-3.5-.6-.6-1.6-1-2.5-1.3-1.9-.6-3.8-1.3-5.4-1.9.3-.3.6-.3 1-.6 0-1.9.3-3.8 0-5.4 0-.3-2.5-.3-3.8-.3-.3 0-1-.3-1.3 0-4.1 1-8.6 1.3-12.4 2.9-2.9 1.3-5.4 1-7.3 0-1.6 1.9-3.5 3.2-4.8 4.8-1 1.3-1.9 2.9-1.9 4.5 0 3.2-1.6 4.5-3.8 5.7-.6.3-1.3 1-1.9 1.6-1.9 3.2-3.5 6.4-5.1 9.9-.3.6-.6 1.6-.3 2.2 0 3.2 1 6.4.3 9.2-.6 3.8-.6 7.3 2.5 10.2 1 1 1.9 2.5 2.9 3.8 1.6 1.9 3.5 3.8 5.1 6 2.2 2.9 4.5 2.5 7.3 1.3-.6-.3 0-.3.3-.3 3.2 1.3 6-.3 8.9-1.6 2.5-1 5.4-1.6 6.4 2.2 0 .3 1 1 1.6 1 4.8 0 5.7.6 4.5 5.1-1 4.1-.6 7.3 2.5 10.5 1 1 1.3 2.2 1.6 3.2 1 3.2 1.6 6.4 2.2 9.5.3 1-.3 2.2-.6 3.5-1.6 4.1-3.5 8.3-1 12.7 1.6 2.9 1.9 6.4 3.2 9.5 1 3.2 2.2 6 3.2 9.2 1 2.5 1.6 5.4 2.2 8.3.3 2.2 1.9 3.5 4.1 2.9 1.6-.3 3.2-.3 4.8-1 2.2-.6 5.4-1.3 6.7-2.9 3.5-3.8 7.3-7.3 7-13.4 0-.3.6-1.3 1-1.3 4.1-1.3 3.5-4.5 2.5-7.6-.3-1-.3-2.5.3-3.5 1.6-1.9 3.8-3.2 5.4-5.1 1-1 2.5-2.2 2.5-3.2 0-3.2-.3-6.7-1-9.9-.3-3.2-2.2-6.7-1-9.5 1.9-4.5 4.8-9.2 8.3-12.1 5.1-4.1 7-9.9 9.5-15.3.6-1.3.3-2.9.6-4.1-1.9.3-3.5.6-5.1 1.3-1.6.3-3.5 1.6-5.1 1-1.3-.3-1.6-2.9-2.5-4.1-2.5-3.2-6.4-5.7-7-10.2-.3-1.6-1.3-3.2-1.9-5.1-.3-1-.3-1.9-.6-2.5-1.6-3.8-3.5-7.3-5.1-11.1l1-1c1 .6 2.5 1 2.9 1.9 1.9 3.8 5.4 7 5.4 11.8 0 .3.3 1 .6 1 3.8 3.5 5.1 8.3 5.7 13 0 .6.3 1.6.6 2.5 1.6-.6 3.2-1 4.5-1.9 4.5-2.5 9.2-5.1 13.7-8.3 2.2-1.6 3.8-4.5 5.7-6.7 1.9-2.2.3-3.2-1-4.8-1.3-1.3-2.5-2.5-4.1-3.8-.3.3-.6 1.3-1.6 1.6-1.3.6-2.9 1-4.1 1.3-.3-1-.3-1.9-.6-3.2 0-.3-.3-.3-.3-.6l-1 1c-1.3-2.2-2.5-4.5-3.5-6.7-.3-.6 0-1.9.6-2.2.6-.3 1.9 0 2.5.3.6.3.6 1.3 1 1.9 1.9 3.8 5.1 5.1 7.6 3.8 2.5 1.3 4.1 2.2 6 2.9 1.9.3 4.1.3 6 .3 2.5 0 4.8-.3 6 2.5.6 1.3 2.2 1.9 3.5 2.9-.3.3-.6.6-1.3 1 2.5 3.2 3.2 3.5 5.4.3-.3 9.9 3.5 18.1 7 26.7 3.8-3.8 4.5-7.6 4.5-12.1 0-1.3 1-2.5 1.6-3.5.3-.6 1.3-1.3 1.9-1.9 1.6-1.3 2.9-2.9 4.5-4.5.3-3.8.3-7.6.3-11.8 0-38.5-13.7-73.5-35.9-101.1-1.6.6-3.5.3-5.7-.3 1.3 1.3 2.5 2.2 4.1 3.8-3.8.6-7.3 1.3-10.5 1.9-.3 0-1-1-1.3-1.6-1.3.3-2.5.6-3.5 1.3-1.9 1-3.8 1.6-5.1 2.9-2.2 1.9-2.5 1.9-4.5-.6.6-.3 1.3-.6 3.2-1.3-1.9-.6-3.2-1-4.5-1.6v6.4c-4.1-1-6.7 1-6.4 4.5-1.9-.3-3.5-1-5.1-1.3v.6l2.2 2.2c-3.2 0-4.8-1-5.4-2.9-.3-1.3-1-2.9-1.3-4.1.3 0 1 .3 1.6.3 2.2.3 4.1 1.3 6.4 1 1.3 0 2.5-1.6 3.8-2.2-1-1-1.6-2.2-2.5-2.9-4.8-2.2-9.9-3.8-14.6-5.7 0 0 .6-.3 1.3-.3-1.3-1-2.2-1.6-3.5-1.6-1.3 0-2.9 0-4.1.3-1 0-1.9-.3-2.5 0-2.2.6-4.8 1.9-7 2.2-2.2.3-3.8 1-4.5 3.2-1 0-2.2-.3-3.2-.3v.6c.6.3 1.3.6 1.6 1-1.9 2.2-3.5 4.5-5.4 6.7-1.9 2.2-3.8 4.5-6 6-5.7 3.5-6 3.8-5.1 9.9 0 .6.6 1 .6 1.6.6 2.9 2.2 3.5 4.5 1.6 1-.6 2.2-1.6 3.2-2.2 1.3 2.5 2.2 4.8 3.2 7.3-.6.6-1.6 1.3-2.5 1.9.3.6.6 1.3 1 2.5.6-1.3 1-1.9 1.3-2.9 1.3.6 5.4-1 6-2.2 1.3-2.9 2.2-5.4 3.5-8.6-2.2-1-2.9-3.2-1.6-5.7.6-1.3 2.2-1.9 3.2-2.9s1.9-2.2 2.5-3.5c1-2.9 3.8-3.5 6.4-1-1 1-1.6 1.9-2.5 2.5-2.2 1.9-4.8 3.8-3.8 7.6.6 2.5 1.9 3.2 3.8 3.2 1.6 0 2.9-1 4.5-1 1.3 0 2.5.3 3.8.3v1.3c-2.9.3-6 1-8.9 1.3.6 2.2 1 3.8 1.3 5.4-.3 0-.6.3-1 .3-.6-.6-1.6-1.3-3.2-2.5-.6 2.9-1 4.8-1.3 7-1.3.3-2.5 2.9-4.5.6 0 0-.6 0-1 .3-2.5 2.5-6 1-8.9 1.3-.6 0-1.9-1.3-2.9-1.9v-.6c.3 0 .6.3 1 .3 0-1.9-.3-4.1-.3-5.7-6 1.6-1.6 5.7-2.2 7.9-2.5 1.6-4.8 2.5-6.7 3.8-2.2 1.9-4.1 4.1-6.4 6-.6.6-1 .9-1.7 1.2-.3 0-1.5-.7-1.8-.4-.6.3.2 1.7-.5 2-1 .3-3.1.1-4.6.4l.2 1c1.3 1 4.6 2.5 5.2 3.8.6 1.6.3 3.8 0 5.7 0 .3-2.2.6-3.5.6 0 0-6.7-.1-8 0-2.4.2-1.1 9.7 0 12.7.6 1.3 3.8 1.9 5.4 2.5.6-.3 1.6-.6 2.5-1 3.8-.6 4.8-1.9 5.4-5.4.3-1.3 1.3-2.9 2.2-3.5 1.6-1 3.5-1.6 2.9-4.1 0-.3 1.6-1.3 2.2-1 2.5 1.3 4.1-.3 6-1.3.6-.3 1.9-.3 2.5.3 2.5 2.2 5.4 4.5 7.9 7.3 1 1 .4 3.5 1 4.4m37.4-6c-1.9 0-4.1-.3-6-1.3-2.5-1-4.5-1-6.7.3-1.3.6-3.8.6-5.1-.3-1.6-1-1-2.5 0-4.1 1.6-2.2 2.5-4.8 3.8-6.7 3.5.3 3.5 3.2 4.5 4.8 1.3-.6 2.5-1 3.8-1.6-1-.3-1.6-1-3.5-1.9 2.9-1.3 5.1-1.9 7.6-2.9-1 1.9-1.9 3.5-2.9 5.1 1.9 1.3 3.8 2.9 5.4 4.5.6.6 1.6 1.9 1.3 2.9.3.6-1.3 1.5-2.2 1.2zm20.3 1c.6 2.5 1.3 5.1 2.2 8.6-2.5-.3-4.5-.6-6-1-2.9-1-3.2-2.9-1.6-5.1 1-1.6.3-2.5-.3-3.8-1-1.9-2.2-4.1-3.2-6.4-.3-.6 0-1.9.6-2.2 2.5-1.9 4.8-4.8 9.5-2.5-1.9 1.9-3.5 3.2-5.1 4.8 1.3 1.6 2.2 3.5 3.2 4.8 1.3 1 2.2 1.6 4.1 2.5-1.8-.1-2.4-.1-3.4.3zM154 261.4c-1-.3-1.3-1.3-2.2-1.9-1-.6-2.2-1.9-3.2-1.9-5.1.3-8.3-3.8-12.7-4.8-3.2-.6-2.5-4.1-3.5-6.4-1.6-3.2-3.8-5.1-7-5.4-1.6 0-3.2-1-4.5-2.2-2.2-1.6-4.1-3.8-6-5.4-.6-.6-1.6-1.3-2.2-1-3.2 1.3-5.4.3-8-1.6-1-.6-2.9 0-4.5.3.3-.6.6-1.3.6-1.9l-.6-.6c-2.9 2.5-5.7 4.8-8.6 7.3-1.3-1.3-2.9-2.5-5.4-.6-.6.3-1.9-.3-2.5-.6-2.9-2.2-1.9-5.1-1.6-7.9.3-3.2-.6-4.5-3.8-4.1h-4.5c1-3.5 1.9-7 2.9-10.2-3.5-1-4.8-.6-5.7 2.5-.6 2.9-2.9 2.5-4.8 2.9-1.3 0-3.2-.6-3.5-1.3-1.3-2.5-2.2-5.4-2.5-8.3-.3-1.6.6-3.5.6-5.1 0-6 3.5-8.6 9.5-6.7.6.3 1.6-.3 2.5-.6 1-.3 1.9-1.3 2.5-1.3 1.6 0 3.2 1.3 4.5 1 2.9-.6 3.2 1.3 3.5 3.2.6 2.2 1.6 4.1 2.5 6 .6 0 1-.3 1.6-.3-.3-1.9 0-4.1-1-6-1.9-4.5-1-7.6 2.5-10.5 1-1 2.2-1.6 3.2-2.5.6-.6 1.3-1.6 1.6-2.9.3-1.6-.6-2.9 1-5.1 2.2-2.5 3.2-6.4 7.3-6.7-.6-4.1 3.5-7.6 8.9-7.9-.6 1-1 2.2-1.6 3.5.3 0 .6 0 .6.3 2.9-1.6 5.7-3.2 8.6-5.1-.3-1-1-1.3-.6-1.3-1.6.6-2.9 1.9-3.8 1.3-1.3-.3-1.9-2.2-2.9-3.2-.3-.3-.6-1-1-1.3.6-.3 1.6-1 2.5-1.9-3.5-2.2-5.7.3-8.3 1 2.5-2.9 5.1-5.1 9.5-4.5 2.5.6 5.1.3 7-1.9.3-.3 1.6-.3 2.2-.3 2.2-1.9 2.5-4.1 1.3-5.1-1.9-1.3-3.8-2.5-5.7-3.8-1-1-1.9-1.9-2.5-3.2-1.6-3.2-2.9-6.4-4.5-9.5-1.9 2.2-3.2 3.8-4.5 5.7h-1.3c-1-2.2-2.2-4.5-3.5-7-3.2-2.5-7-4.5-11.8-3.5v9.9c3.8 3.5 3.5 5.4-2.2 9.2-.3 2.5 3.2 5.7-1.9 8.3-1.3-3.2-2.5-6.4-3.5-8.9-4.8-1.9-9.9-4.1-14.9-6-.3-.6-1.3-1.9-2.2-3.2-.6-1-1.6-1.6-1.6-2.5 0-3.2 5.4-9.9 8.3-10.8 1.3-.6 2.5-1.9 3.5-2.9.6-.6 1.3-1.3 1.9-2.2-.6-1-.6-1.6-1.3-2.5 3.8 1.9 6 .6 7.6-1.3-.3-1.6-.3-2.5-.6-3.5 0-1 0-2.2-.6-2.5-1.3-1-3.2-1.3-3.8-1.6-1.3 2.9-2.2 5.1-3.5 7-.3 0-.6.3-1 .3-.3-1-.6-1.9-1-2.9-.3-1-.6-1.9-1.3-3.5-1 1.6-1.6 2.2-2.2 3.2-.3-2.2-.3-4.1-2.9-3.5.3-2.5-1-4.1-2.5-5.7-1.3 1.6-2.5 2.9-3.8 4.5.3.6.6 1 1 1.6h-2.2c-.6 1-1.3 1.6-1.9 2.5.3 0 .6.3.6.3-.6 1-1.6 1.6-2.5 1.9-16.5 22.3-27.7 49-30.8 77.9.3.3.6.3.6.6 1 1 1.9 1.9 2.9 3.2 1.3 1.9 2.2 4.1 3.2 6.4.6 1.3 1 2.5 1.6 3.5.6 1.3 1.9 2.2 2.9 3.5 1.3 1.6 2.2 3.5 3.2 5.4.3-.3.6-.3 1-.6-2.9-5.4-5.7-10.8-8.6-15.9.3-.3.6-.6 1.3-1 .6.6 1.6 1.3 2.2 2.2.6 1.3 1 2.9 1.9 3.8 2.5 3.5 5.4 6.7 8 10.2 1.3 1.6 1.3 4.1 1.9 6 .3 1 .6 1.9 1.3 2.2 2.5 1.6 5.1 3.5 7.9 4.8 2.2 1.3 4.5 1.9 7.6 1.3 1.6-.3 4.1 2.9 6.4 4.1 2.5 1.3 5.4 2.2 7 5.1.3 1 .3 2.2 1 2.5 2.5 1.9 5.1 3.5 7.3 4.8 1-1 1.6-1.9 2.2-2.9 0 0 1 .3 1.3.6.6 1.9 1.3 3.5 1.6 5.4 1 3.5-1.3 6-3.2 8.6-2.2 2.5-2.5 5.1-1 8-2.2 1.6-2.2 3.8-1 6 1.3 2.2 2.5 4.5 3.8 6.7 2.5 5.1 3.5 11.1 9.9 13.7 2.2 1 3.2 3.2 2.9 5.7-1 8.9-1.3 17.8-2.5 26.4-.6 4.8-2.9 9.5-3.2 14.3 0 1.9-.3 3.8-.6 5.7l.3.3c.3-1 .6-2.2 1-3.2.3 0 .6 0 1 .3-.3 1.3-.3 2.5-.6 3.8 2.9 1.9 5.7 3.5 8.6 5.1.3-.6 1-1.3 1.9-2.2.6-.3 1.3-1.3 1.3-1.9.3-2.2.6-4.5 1-6.4 1.3 0 2.9 0 3.5-.6.6-.6.6-2.5 1-3.8.3.3.3.6.6.6 2.2-1.3 5.1-1.9 6.7-3.8 2.2-2.2-.3-4.5-1.6-6.7 6.4 1.9 7.6 1.3 9.9-5.1.3-1.3 1.6-1.9 2.5-3.2 1-1.9 2.5-3.5 2.9-5.7.6-5.1 3.5-8.3 8.3-9.2 1.3-.3 2.9-1.3 3.5-2.5 2.2-4.1 3.5-8.9 3.2-13.7 0-1 0-1.9.6-2.5 1.3-2.2 3.2-4.1 4.5-6.4 1-1.9 1-4.1 1.3-6.4 0-1.3-2.3-1.3-3.5-1.9zM63 103.3c1 .6 1.9 1.3 3.2 2.2l-3.8 3.8c-1.6-1.8 0-3.8.6-6zm37.9-21.9c2.5-.3 4.8-.6 6.7-1-2.9-.6-5.7-1.3-8.9-1.9 3.5-3.5 8.9-1.9 13-6-2.2-.3-3.2-.6-4.5-1v-.6c3.2-1 6-1.9 9.5-3.2 0 0 0-.6.3-1.6 3.8.3 8-3.2 12.1 0 0 0 .3 0 .3-.3v-1c1.6.6 2.9 1 5.1 1.9-.6-1-1-1.6-1.9-2.9 3.8 1 7 1.9 9.9 2.5V66c-1.3-.6-2.5-1-3.8-1.6 3.8-2.9 7.9-2.9 12.4-1.6 5.4-3.5 11.4-1.9 17.2-1.3 3.2.3 6.4 1.6 9.5 2.5v1c-3.5.3-6.7.6-10.2 1 3.5.3 6.7.3 10.2.6-.6 1-1.3 1.9-1.6 2.5 5.1-1.6 10.2-3.8 16.9-1.9-6 2.9-11.1 5.7-14.6 11.1 1.3.3 2.2.6 3.8 1-.6.3-1 .3-2.2 1 1.6.3 2.5.6 3.8 1-.3.6-.6 1.3-.6 1.6h-4.8c1.3 1.6 2.2 2.5 3.5 3.8-.3.3-1 .6-1.6 1l1.9 1.9c-1.9 1.3-3.5 2.5-5.4 3.8.3 1.9 1 4.5 1.6 8.3-2.2-1-3.8-1.9-5.7-2.9-.3.6-1 1.6-1.3 2.2 1.6.3 3.2.6 5.1 1-3.5 3.5-8 4.1-12.4 5.4-1.6.3-3.2 1-4.1 2.2-1.9 2.5-4.5 4.1-7.6 4.1-2.2 0-3.5 1.3-3.5 3.5 0 .6 0 1.6-.3 1.9-2.5 2.2-2.5 5.1-3.5 8-.6 1.9-1.9 1.9-3.2 1l-1.3-1.3c-6.4-1-7.6-6.4-9.5-10.8-1.3-1.9-2.5-3.8-2.5-5.7 0-1.3 1-4.1 1.6-4.1 1.9-.3 2.5-1 2.2-2.2-.3-1-1.6-1.9-2.2-2.5l-1 1c.6.3 1.3.3 1.9.6-.3.3-.3.6-.6 1-1.3-.3-2.9-.3-4.1-.6 1.3-3.5 1.3-3.5 5.7-2.9 0-.3.3-.6.3-1-2.2-.6-4.5-1.6-7-2.5 1-4.5-1.3-8.3-4.8-11.1-1.9-1.6-5.1-1.6-8-1.9-1.9-.3-4.1.3-6 .3-1 0-1.6-.6-2.5-1.3-1.1-.1-2.1-.8-3.3-1.7zm0 0"/></g><defs><path id="c" d="M310.9 218.7c0 76.8-62.2 139-139 139s-139-62.2-139-139S95.2 79.8 172 79.8s138.9 62.1 138.9 138.9z"/></defs><clipPath id="d"><use xlink:href="#c" overflow="visible"/></clipPath><g fill="#FFF" clip-path="url(#d)"><path d="M173.5 192.1l41.2 49.9c.4.5.9.7 1.5.7h78.6c1.7 0 2.6-1.9 1.5-3.2l-28.6-34.2c-.4-.4-.9-.7-1.5-.7h-63.8c-.6 0-1.2-.3-1.5-.7l-27.4-34.5c-.8-1-2.3-1-3.1 0L143 203.9c-.4.5-.9.7-1.5.7H77.8c-.6 0-1.1.3-1.5.7l-28.6 34.2c-1.1 1.3-.2 3.2 1.5 3.2h78.6c.6 0 1.1-.3 1.5-.7l41.2-49.9c.7-1 2.2-1 3 0z"/><path d="M287.9 249.4h-75.1c-.9 0-1.7-.4-2.2-1l-36.4-43.9c-1.2-1.4-3.3-1.4-4.5 0l-36.4 43.9c-.6.7-1.4 1-2.2 1H56c-1.6 0-2.9 1.3-2.9 2.9v117.1c0 1.6 1.3 2.9 2.9 2.9h231.9c1.6 0 2.9-1.3 2.9-2.9V252.3c0-1.6-1.3-2.9-2.9-2.9zM172 260.5c-8.4 0-15.2-6.8-15.2-15.2 0-7.8 5.9-14.3 13.5-15.1v15.4c0 .9.8 1.7 1.7 1.7h10.2c.9 0 1.7-.8 1.7-1.7s-.8-1.7-1.7-1.7h-8.5v-13.7c7.6.9 13.5 7.3 13.5 15.1 0 8.4-6.8 15.2-15.2 15.2z"/></g><g fill="#FFF" clip-path="url(#d)"><path d="M173.6 192.2l41.2 49.9c.4.5.9.7 1.5.7h78.6c1.7 0 2.6-1.9 1.5-3.2l-28.6-34.2c-.4-.4-.9-.7-1.5-.7h-63.8c-.6 0-1.2-.3-1.5-.7l-27.4-34.5c-.8-1-2.3-1-3.1 0L143.2 204c-.4.5-.9.7-1.5.7H77.8c-.6 0-1.1.3-1.5.7l-28.6 34.2c-1.1 1.3-.2 3.2 1.5 3.2h78.7c.6 0 1.1-.3 1.5-.7l41.2-49.9c.7-1 2.2-1 3 0z"/><path d="M288.1 249.6h-75.2c-.9 0-1.7-.4-2.2-1l-36.4-44c-1.2-1.4-3.3-1.4-4.5 0l-36.4 44c-.6.7-1.4 1-2.2 1H56c-1.6 0-2.9 1.3-2.9 2.9v117.2c0 1.6 1.3 2.9 2.9 2.9h232.1c1.6 0 2.9-1.3 2.9-2.9V252.5c0-1.6-1.3-2.9-2.9-2.9zm-116 11.1c-8.4 0-15.2-6.8-15.2-15.2 0-7.8 5.9-14.3 13.5-15.1v15.4c0 .9.8 1.7 1.7 1.7h10.2c.9 0 1.7-.8 1.7-1.7s-.8-1.7-1.7-1.7h-8.5v-13.7c7.6.9 13.5 7.3 13.5 15.1 0 8.4-6.8 15.2-15.2 15.2z"/></g><g clip-path="url(#d)"><path fill="#98D5E9" d="M93.4 302.2c-.9-2.4-3.3-3.1-6-3.1H83c-2.8 0-5.1.7-6 3.1l-11.9 17.7c-1.1 1.6-.6 3.7.9 4.8 1.6 1.1 3.7.7 4.8-.9l5.6-8.4v3.7L71.8 340c-.1.4 0 .8.2 1 .2.3.6.5 1 .5h3.4v10.8c0 1.9 1.6 3.5 3.5 3.5s3.5-1.6 3.5-3.5v-10.8h3.5v10.8c0 1.9 1.6 3.5 3.5 3.5s3.5-1.6 3.5-3.5v-10.8h3.4c.4 0 .7-.2 1-.5.2-.3.3-.7.2-1l-4.7-21v-3.7l5.6 8.4c1.1 1.6 3.2 2 4.8.9 1.6-1.1 2-3.2.9-4.8l-11.7-17.6zm-8.2-5.4c4.6 0 8.3-3.9 8.3-8.5s-3.7-8.3-8.3-8.3c-4.6 0-8.3 3.7-8.3 8.3-.1 4.5 3.7 8.5 8.3 8.5zm0 0"/><path fill="#FFDC2E" d="M140.3 320.1l-11.9-17.7c-.9-2.4-3.3-3.1-6-3.1H118c-2.8 0-5.1.7-6 3.1l-11.9 17.7c-1.1 1.6-.6 3.7.9 4.8 1.6 1.1 3.7.7 4.8-.9l5.6-8.4v36.8c0 1.9 1.4 3.5 3.3 3.6 2 .1 3.6-1.5 3.6-3.5v-17.8c0-1 .8-1.7 1.7-1.7 1 0 1.7.8 1.7 1.7v17.7c0 1.9 1.4 3.5 3.3 3.6 2 .1 3.6-1.5 3.6-3.5v-36.9l5.6 8.4c1.1 1.6 3.2 2 4.8.9 1.9-1.1 2.4-3.3 1.3-4.8zM120.2 297c4.6 0 8.3-3.7 8.3-8.3s-3.7-8.3-8.3-8.3c-4.6 0-8.3 3.7-8.3 8.3s3.7 8.3 8.3 8.3zm0 0"/><path fill="#E26082" d="M162.8 302.2c-.9-2.4-3.3-3.1-6-3.1h-4.4c-2.8 0-5.1.7-6 3.1l-11.9 17.7c-1.1 1.6-.6 3.7.9 4.8 1.6 1.1 3.7.7 4.8-.9l5.6-8.4v3.7l-4.6 20.9c-.1.4 0 .8.2 1 .2.3.6.5 1 .5h3.4v10.8c0 1.9 1.6 3.5 3.5 3.5s3.5-1.6 3.5-3.5v-10.8h3.5v10.8c0 1.9 1.6 3.5 3.5 3.5s3.5-1.6 3.5-3.5v-10.8h3.4c.4 0 .7-.2 1-.5.2-.3.3-.7.2-1l-4.6-20.9v-3.7l5.6 8.4c1.1 1.6 3.2 2 4.8.9 1.6-1.1 2-3.2.9-4.8l-11.8-17.7zm-8.3-5.4c4.6 0 8.3-3.9 8.3-8.5s-3.7-8.3-8.3-8.3c-4.6 0-8.3 3.7-8.3 8.3 0 4.5 3.8 8.5 8.3 8.5zm0 0"/><path fill="#5DB45C" d="M209.7 320.1l-11.9-17.7c-.9-2.4-3.3-3.1-6-3.1h-4.4c-2.8 0-5.1.7-6 3.1l-11.9 17.7c-1.1 1.6-.6 3.7.9 4.8 1.6 1.1 3.7.7 4.8-.9l5.6-8.4v36.8c0 1.9 1.4 3.5 3.3 3.6 2 .1 3.6-1.5 3.6-3.5v-17.8c0-1 .8-1.7 1.7-1.7 1 0 1.7.8 1.7 1.7v17.7c0 1.9 1.4 3.5 3.3 3.6 2 .1 3.6-1.5 3.6-3.5v-36.9l5.6 8.4c1.1 1.6 3.2 2 4.8.9 1.9-1.1 2.3-3.3 1.3-4.8zM189.6 297c4.6 0 8.3-3.7 8.3-8.3s-3.7-8.3-8.3-8.3c-4.6 0-8.3 3.7-8.3 8.3s3.7 8.3 8.3 8.3zm0 0"/><path fill="#EC6237" d="M232.1 302.2c-.9-2.4-3.3-3.1-6-3.1h-4.4c-2.8 0-5.1.7-6 3.1l-11.9 17.7c-1.1 1.6-.6 3.7.9 4.8 1.6 1.1 3.7.7 4.8-.9l5.6-8.4v3.7l-4.6 20.9c-.1.4 0 .8.2 1 .2.3.6.5 1 .5h3.4v10.8c0 1.9 1.6 3.5 3.5 3.5s3.5-1.6 3.5-3.5v-10.8h3.5v10.8c0 1.9 1.6 3.5 3.5 3.5s3.5-1.6 3.5-3.5v-10.8h3.4c.4 0 .7-.2 1-.5.2-.3.3-.7.2-1l-4.6-20.9v-3.7l5.6 8.4c1.1 1.6 3.2 2 4.8.9 1.6-1.1 2-3.2.9-4.8l-11.8-17.7zm-8.2-5.4c4.6 0 8.3-3.9 8.3-8.5s-3.7-8.3-8.3-8.3c-4.6 0-8.3 3.7-8.3 8.3 0 4.5 3.7 8.5 8.3 8.5zm0 0"/><path fill="#98D5E9" d="M279 320.1l-11.9-17.7c-.9-2.4-3.3-3.1-6-3.1h-4.4c-2.8 0-5.1.7-6 3.1l-11.9 17.7c-1.1 1.6-.6 3.7.9 4.8 1.6 1.1 3.7.7 4.8-.9l5.6-8.4v36.8c0 1.9 1.4 3.5 3.3 3.6 2 .1 3.6-1.5 3.6-3.5v-17.8c0-1 .8-1.7 1.7-1.7 1 0 1.7.8 1.7 1.7v17.7c0 1.9 1.4 3.5 3.3 3.6 2 .1 3.6-1.5 3.6-3.5v-36.9l5.6 8.4c1.1 1.6 3.2 2 4.8.9 2-1.1 2.4-3.3 1.3-4.8zM259 297c4.6 0 8.3-3.7 8.3-8.3s-3.7-8.3-8.3-8.3c-4.6 0-8.3 3.7-8.3 8.3s3.7 8.3 8.3 8.3zm0 0"/></g></svg>